<?xml version="1.0" standalone="no"?>
<!DOCTYPE svg PUBLIC "-//W3C//DTD SVG 1.1//EN" "http://www.w3.org/Graphics/SVG/1.1/DTD/svg11.dtd" >
<svg xmlns="http://www.w3.org/2000/svg" xmlns:xlink="http://www.w3.org/1999/xlink" version="1.1">
<metadata>
Created by FontForge 20170731 at Tue Jul 11 08:45:13 2017
 By Aleksey,,,
Copyright (c) 2016 by Deni Anggara. All rights reserved.
</metadata>
<defs>
<font id="NeutrifPro-Medium" horiz-adv-x="1452" >
  <font-face 
    font-family="Neutrif Pro Medium"
    font-weight="500"
    font-stretch="normal"
    units-per-em="2048"
    panose-1="0 0 6 0 0 0 0 0 0 0"
    ascent="1540"
    descent="-508"
    x-height="983"
    cap-height="1454"
    bbox="-80 -532 2238 2066"
    underline-thickness="102"
    underline-position="-816"
    unicode-range="U+0020-FB04"
  />
<missing-glyph horiz-adv-x="748" 
d="M68 0v1365h544v-1365h-544zM136 68h408v1229h-408v-1229z" />
    <glyph glyph-name="uniFB01" unicode="fi" horiz-adv-x="1089" 
d="M33 807v176h137v168q0 152 90.5 244t233.5 92q59 0 108 -14l-41 -193q-27 6 -53 6q-62 0 -95.5 -39t-33.5 -112v-152h575v-176v-807h-204v807h-371v-807h-207q0 586 -2 807h-137zM713 1339q0 60 42.5 103t102.5 43q57 0 100 -43t43 -103q0 -56 -43 -99.5t-100 -43.5
q-59 0 -102 43.5t-43 99.5z" />
    <glyph glyph-name="uniFB02" unicode="fl" horiz-adv-x="1265" 
d="M33 807v176h137v162q0 152 90.5 244t233.5 92q56 0 108 -15l-41 -192q-27 6 -53 6q-62 0 -95.5 -39.5t-33.5 -112.5v-145h393v471h209v-1169q0 -55 21.5 -75t70.5 -20l109 -2v-188l-201 2q-103 0 -156 64.5t-53 187.5v553h-393v-807h-207q0 588 -2 807h-137z" />
    <glyph glyph-name=".notdef" horiz-adv-x="748" 
d="M68 0v1365h544v-1365h-544zM136 68h408v1229h-408v-1229z" />
    <glyph glyph-name="glyph1" horiz-adv-x="0" 
 />
    <glyph glyph-name="glyph2" horiz-adv-x="682" 
 />
    <glyph glyph-name="space" unicode=" " horiz-adv-x="477" 
 />
    <glyph glyph-name="exclam" unicode="!" horiz-adv-x="589" 
d="M160 109q0 57 41 98t100 41q56 0 97.5 -41t41.5 -98q0 -55 -41.5 -96.5t-97.5 -41.5q-57 0 -99 41t-42 97zM174 868v586h242v-586l-27 -528h-190z" />
    <glyph glyph-name="quotedbl" unicode="&#x22;" horiz-adv-x="763" 
d="M125 1384q-6 61 25.5 95.5t80.5 29.5q46 0 75.5 -33.5t23.5 -91.5l-41 -378h-121zM432 1384q-6 61 26 95.5t81 29.5q46 0 75 -33t23 -92l-41 -378h-121z" />
    <glyph glyph-name="numbersign" unicode="#" horiz-adv-x="1523" 
d="M143 395l39 207h199l49 250h-225l39 209h227l78 393h207l-78 -393h289l77 393h207l-77 -393h206l-39 -209h-208l-50 -250h224l-39 -207h-226l-77 -395h-207l78 395h-289l-76 -395h-207l76 395h-197zM588 602h289l49 250h-289z" />
    <glyph glyph-name="dollar" unicode="$" horiz-adv-x="1261" 
d="M115 367l211 30q15 -90 108 -153q95 -62 230 -62q121 0 196.5 66t75.5 155q0 71 -53 128t-144 77l-237 47q-155 32 -241.5 137.5t-86.5 258.5q0 159 105 276q106 121 268 148v145h182v-141q165 -20 278.5 -111.5t151.5 -237.5l-207 -55q-25 97 -105.5 149t-205.5 52
q-114 0 -187 -69t-73 -158q0 -67 44 -117.5t122 -67.5q62 -16 151 -30q20 -6 68 -15q180 -35 278.5 -144t98.5 -274q0 -170 -115 -288q-115 -115 -299 -133v-146h-182v152q-175 30 -293.5 133t-138.5 248z" />
    <glyph glyph-name="percent" unicode="%" horiz-adv-x="2037" 
d="M123 1098q0 177 91 284t243 107q147 0 235 -107t88 -284q0 -176 -92 -285q-87 -106 -239 -106q-149 0 -237.5 106t-88.5 285zM276 1098q0 -108 48.5 -172t128.5 -66q80 2 127 66t47 172q0 106 -47.5 169.5t-126.5 63.5h-2q-79 0 -127 -63.5t-48 -169.5zM379 0l1108 1454
h213l-1108 -1454h-213zM1298 358q0 177 91 284.5t243 107.5q147 0 235.5 -107.5t88.5 -284.5q0 -175 -92 -284q-88 -107 -240 -107q-149 0 -237.5 106t-88.5 285zM1452 358q0 -108 48 -171.5t128 -65.5q80 2 127 65.5t47 171.5q0 106 -47.5 170t-126.5 64h-2
q-79 0 -126.5 -64t-47.5 -170z" />
    <glyph glyph-name="ampersand" unicode="&#x26;" horiz-adv-x="1529" 
d="M143 449q0 130 76 249q42 69 105 118.5t159 96.5q-114 141 -114 263q0 130 91.5 222.5t225.5 92.5q126 0 215.5 -84.5t89.5 -212.5q0 -95 -53 -170.5t-168 -155.5q68 -86 152 -198l151 -199q20 55 27 100q12 58 12 127q0 35 -2 45l195 17q3 -117 -11 -195
q-18 -143 -88 -262l62 -70q25 -27 54.5 -37t84.5 -10h94v-186h-145q-77 -1 -126.5 21t-99.5 79l-47 52q-88 -81 -202 -125.5t-240 -44.5q-135 0 -245.5 58t-174.5 159q-78 116 -78 250zM336 444q0 -62 31 -122q38 -71 109.5 -113.5t160.5 -42.5q187 0 326 133
q-63 80 -201 264l-156 203q-91 -46 -143 -84t-80 -84q-47 -68 -47 -154zM563 1180q-3 -50 47 -115q2 -3 47 -61q40 25 62 47q47 38 66 71t14 70q-7 48 -40.5 76t-78.5 28q-50 0 -83.5 -33.5t-33.5 -82.5z" />
    <glyph glyph-name="quotesingle" unicode="'" horiz-adv-x="528" 
d="M111 1225q0 57 41 98t98 41t98 -41t41 -98q0 -36 -18 -66l-105 -217h-73l30 150q-49 7 -80.5 46t-31.5 87z" />
    <glyph glyph-name="parenleft" unicode="(" horiz-adv-x="608" 
d="M106 678q0 268 101 506q103 243 274 354l117 -127q-82 -50 -146 -173.5t-95.5 -271t-30.5 -288.5q-1 -141 30.5 -288.5t95.5 -272t146 -174.5l-117 -127q-171 111 -274 354q-101 238 -101 508z" />
    <glyph glyph-name="parenright" unicode=")" horiz-adv-x="608" 
d="M10 -57q129 85 199 297q72 219 72 438q0 142 -31 288.5t-94.5 270.5t-145.5 174l117 127q171 -111 274 -354q101 -238 101 -506q0 -270 -101 -508q-103 -243 -274 -354z" />
    <glyph glyph-name="asterisk" unicode="*" horiz-adv-x="591" 
d="M47 1251l29 88l176 -55v184h92v-184l176 55l25 -88l-174 -57l110 -158l-75 -53l-109 158l-109 -156l-73 51l110 158z" />
    <glyph glyph-name="plus" unicode="+" horiz-adv-x="1189" 
d="M82 512v193h418v415h192v-415h416v-193h-416v-418h-192v418h-418z" />
    <glyph glyph-name="comma" unicode="," horiz-adv-x="528" 
d="M125 137q0 57 41 98t98 41t98 -41t41 -98q0 -38 -18 -65l-104 -217h-74l31 147q-50 11 -81.5 48.5t-31.5 86.5z" />
    <glyph glyph-name="hyphen" unicode="-" horiz-adv-x="942" 
d="M86 436v207h770v-207h-770z" />
    <glyph glyph-name="period" unicode="." horiz-adv-x="536" 
d="M129 109q0 59 40.5 99t98.5 40q57 0 98.5 -41t41.5 -98q0 -56 -41.5 -97t-98.5 -41t-98 41t-41 97z" />
    <glyph glyph-name="slash" unicode="/" horiz-adv-x="776" 
d="M0 0l567 1454h209l-569 -1454h-207z" />
    <glyph glyph-name="zero" unicode="0" horiz-adv-x="1488" 
d="M102 729q0 275 115 467q86 138 219 213t303 76h4h7q323 -3 499 -258q137 -192 137 -498q0 -287 -118 -471q-82 -135 -215 -208.5t-303 -74.5h-7h-4q-185 2 -326 87.5t-220 244.5q-91 187 -91 422zM326 729q0 -182 65 -315q55 -108 147 -166t205 -60q104 2 189.5 50
t142.5 139q86 139 86 352q0 223 -96 369q-57 81 -140 124.5t-182 45.5q-103 -2 -187.5 -49t-139.5 -134q-90 -137 -90 -356z" />
    <glyph glyph-name="one" unicode="1" horiz-adv-x="727" 
d="M72 1104v209h172q98 0 98 114v48h211v-1475h-211v1120q-46 -16 -90 -16h-180z" />
    <glyph glyph-name="two" unicode="2" horiz-adv-x="1216" 
d="M92 0q0 128 37 209q39 86 150 166q55 43 241 182q215 160 264 205q118 106 121 229q-5 132 -80 210.5t-204 78.5q-130 0 -207.5 -75.5t-77.5 -203.5h-209q0 213 136 348t353 138h5h4q210 -3 348 -141.5t141 -346.5v-8v-8q-6 -222 -205 -391q-31 -28 -209 -160l-143 -110
l-145 -113l665 2v-207z" />
    <glyph glyph-name="three" unicode="3" horiz-adv-x="1204" 
d="M96 457h209q3 -117 84 -195q83 -80 211 -80q123 0 208 81t85 202q0 124 -86.5 208.5t-214.5 84.5q-66 0 -125 -19l-70 172l336 334h-573v209h884v-194l-327 -326q169 -40 276 -168q109 -127 109 -301q0 -135 -67.5 -248t-183 -177.5t-251.5 -64.5q-138 -3 -256 63
t-184.5 178.5t-63.5 240.5z" />
    <glyph glyph-name="four" unicode="4" horiz-adv-x="1255" 
d="M92 285v207l725 962h207v-965h180v-206l-180 2v-285h-207v285h-725zM346 492h471v630z" />
    <glyph glyph-name="five" unicode="5" horiz-adv-x="1216" 
d="M92 477h209q0 -124 86.5 -208.5t214.5 -84.5q127 0 220 86t93 207q3 150 -88 238q-90 90 -235 90q-81 0 -154.5 -36.5t-105.5 -92.5l-191 49l181 729h749v-209h-586l-86 -317q103 63 224 63q110 0 204 -39.5t159 -108t101.5 -163.5t36.5 -203q3 -133 -68.5 -251
t-193.5 -187t-260 -66q-140 0 -257.5 67.5t-185 183.5t-67.5 253z" />
    <glyph glyph-name="six" unicode="6" horiz-adv-x="1316" 
d="M127 705q0 155 34 294.5t97 235.5q169 248 467 248q150 0 276.5 -63t200.5 -179l-176 -108q-54 69 -130 106t-161 37q-142 0 -246 -96q-138 -115 -161 -355q59 103 162 158t227 55q98 0 188.5 -35.5t161.5 -100t113.5 -164t42.5 -218.5q2 -119 -42.5 -224.5t-118 -177
t-169.5 -111.5t-195 -38q-183 0 -313.5 97t-194 261t-63.5 378zM369 520q-3 -163 91.5 -260.5t237.5 -97.5q131 0 224.5 98t93.5 254q0 153 -94.5 244.5t-225.5 91.5q-126 0 -221 -86q-94 -85 -106 -244z" />
    <glyph glyph-name="seven" unicode="7" horiz-adv-x="1048" 
d="M31 1239v215h987v-215q-256 -206 -379 -467q-121 -264 -145 -446q-25 -192 -25 -326h-213q0 235 84 582q85 342 412 657h-721z" />
    <glyph glyph-name="eight" unicode="8" horiz-adv-x="1232" 
d="M111 397q0 182 145 303q55 43 113 68q-62 33 -111 82q-100 109 -100 250q0 182 149 295q128 90 307 90q176 0 297 -80q79 -53 121.5 -132.5t42.5 -168.5q0 -148 -104 -258q-51 -51 -109 -78q47 -20 86 -45q84 -59 128 -142.5t44 -177.5q0 -90 -38 -171.5t-107 -141.5
q-138 -117 -369 -117q-220 0 -358 125q-137 125 -137 299zM305 424q0 -93 64 -160q90 -93 245 -96q139 0 232 78q82 70 82 180q-3 105 -94 174q-83 68 -220 68q-144 0 -229 -76q-80 -71 -80 -168zM344 1081q0 -72 49 -123t129 -63q46 -12 90 -12q57 0 121 22q43 17 73 46.5
t42 64.5q16 40 16 69q0 49 -30 93q-20 55 -79.5 85.5t-140.5 30.5q-123 0 -198 -63q-72 -60 -72 -150z" />
    <glyph glyph-name="nine" unicode="9" horiz-adv-x="1345" 
d="M100 930q-3 118 44 224.5t124.5 180t178 116t202.5 40.5q195 0 332 -113t195 -311q47 -158 47 -322q0 -141 -33.5 -271.5t-95.5 -229.5q-84 -133 -215 -205t-281 -72q-139 0 -261.5 63.5t-199.5 180.5l176 108q53 -68 129.5 -105.5t159.5 -37.5q97 0 180.5 46t137.5 130
q65 89 86 238q-56 -92 -156 -143.5t-217 -51.5q-99 -2 -195 35t-172 104t-122 171t-44 225zM309 940q0 -157 98 -250.5t230 -93.5q136 0 235 92.5t99 251.5q0 79 -27 145.5t-72.5 109t-103 66t-119.5 23.5q-135 0 -237.5 -95t-102.5 -249z" />
    <glyph glyph-name="colon" unicode=":" horiz-adv-x="526" 
d="M123 109q0 57 40.5 98t100.5 41q56 0 97.5 -41t41.5 -98q0 -55 -41.5 -96.5t-97.5 -41.5q-57 0 -99 41t-42 97zM123 844q0 57 42 98t99 41q56 0 97.5 -41t41.5 -98q0 -55 -41.5 -96t-97.5 -41q-57 0 -99 41t-42 96z" />
    <glyph glyph-name="semicolon" unicode=";" horiz-adv-x="526" 
d="M123 135q0 57 42 98t99 41q56 0 97.5 -41t41.5 -98q0 -27 -18 -65l-106 -217h-72l29 149q-48 11 -80.5 48.5t-32.5 84.5zM123 844q0 57 42 98t99 41q56 0 97.5 -41t41.5 -98q0 -55 -41.5 -96t-97.5 -41q-57 0 -99 41t-42 96z" />
    <glyph glyph-name="less" unicode="&#x3c;" horiz-adv-x="854" 
d="M72 387v219l692 373v-223l-488 -258l488 -258v-226z" />
    <glyph glyph-name="equal" unicode="=" horiz-adv-x="1140" 
d="M172 176v180h772v-180h-772zM172 629v180h772v-180h-772z" />
    <glyph glyph-name="greater" unicode="&#x3e;" horiz-adv-x="860" 
d="M90 14v226l485 258l-485 258v223l692 -373v-219z" />
    <glyph glyph-name="question" unicode="?" horiz-adv-x="1107" 
d="M25 1010q0 198 138.5 336.5t336.5 138.5q97 0 185.5 -37.5t152.5 -101t101.5 -151.5t37.5 -185q0 -115 -42.5 -201t-143.5 -166q-13 -13 -58 -43q-92 -67 -134.5 -114t-43.5 -97v-49h-207v59q0 76 37 140q35 60 78.5 103t128.5 110q21 12 45 34q129 105 129 224
t-75.5 192.5t-190.5 73.5q-106 0 -186.5 -80t-80.5 -186h-208zM319 113q0 57 41 98t101 41q56 0 98.5 -42t42.5 -97t-42.5 -97.5t-98.5 -42.5q-59 0 -100.5 41.5t-41.5 98.5z" />
    <glyph glyph-name="at" unicode="@" horiz-adv-x="1601" 
d="M78 729q-3 142 56.5 277.5t159.5 235t236 159t279 55.5q237 0 423 -131t253 -354q28 -92 28 -191q0 -103 -26 -182q-37 -122 -125 -190t-195 -68q-132 0 -206 100q-96 -90 -242 -90q-115 0 -188.5 62.5t-73.5 160.5q-3 129 96 209q76 64 235 64h140h6q4 56 -32 89.5
t-97 33.5q-62 0 -109.5 -29t-70.5 -82l-50 19l-86 34q60 109 146 161t207 52q113 0 184.5 -68.5t71.5 -176.5l-2 -29l-19 -213q-2 -6 -2 -27q0 -48 28.5 -77t72.5 -29q49 0 92 36t61 97q17 80 17 131q0 101 -33 180q-53 155 -191 246q-137 94 -313 94q-111 2 -216 -43.5
t-182 -121.5t-122.5 -180t-42.5 -214q-2 -112 43 -217t121.5 -181.5t181.5 -121.5t217 -43q195 0 344 127l115 -127q-96 -81 -215 -124.5t-244 -43.5q-143 -3 -279 56.5t-236 159.5t-159.5 236t-56.5 279zM627 596q0 -37 27 -56.5t77 -19.5q148 0 182 185h-147
q-66 0 -102.5 -29.5t-36.5 -79.5z" />
    <glyph glyph-name="A" unicode="A" 
d="M20 0l588 1454h221h15l588 -1454h-242l-150 381h-630l-148 -381h-242zM483 567h486l-244 621z" />
    <glyph glyph-name="B" unicode="B" horiz-adv-x="1300" 
d="M143 0v1454h123h84l367 -2q225 -1 355 -111t132 -297v-2q0 -195 -160 -313q85 -54 131 -136.5t46 -184.5v-2q-2 -185 -130.5 -295t-347.5 -111h-393h-207zM350 201h383q114 0 188 58t74 159q0 100 -72 158.5t-194 58.5h-379v-434zM350 817h363q127 0 195.5 60t68.5 161
q0 96 -70.5 156.5t-195.5 60.5h-361v-438z" />
    <glyph glyph-name="C" unicode="C" horiz-adv-x="1540" 
d="M86 727v15q0 141 56 275q58 141 156 245q99 102 234 164q129 59 266 59h13h7q103 0 195 -27q95 -28 163.5 -71.5t125 -102t91 -114t55.5 -111.5l-209 -78q-48 128 -163.5 207.5t-264.5 79.5q-138 0 -253 -72t-181 -196.5t-66 -272.5q0 -225 144.5 -378.5t355.5 -153.5
q146 0 265 74t177 194l207 -96q-82 -180 -256 -287t-393 -107h-13q-137 0 -266 58q-135 61 -234 163q-98 104 -156 244q-56 134 -56 274v15z" />
    <glyph glyph-name="D" unicode="D" horiz-adv-x="1482" 
d="M172 0v1456h207h276h13q204 0 370 -90q172 -94 268 -262q94 -163 93 -364v-13v-11q1 -150 -53 -282q-56 -136 -154 -232q-99 -96 -238 -150q-134 -52 -287 -52h-12h-354h-129zM379 190h276q241 0 380 145t139 392q0 245 -141.5 392t-377.5 147h-276v-1076z" />
    <glyph glyph-name="E" unicode="E" horiz-adv-x="1185" 
d="M172 0v1454h207h688l-2 -207h-686v-413h620l-2 -201h-618v-428h688l-2 -205h-881h-12z" />
    <glyph glyph-name="F" unicode="F" horiz-adv-x="1148" 
d="M172 0v1454h207l688 -2l-2 -205l-686 2v-440l582 -2l-3 -199h-579v-608h-207z" />
    <glyph glyph-name="G" unicode="G" horiz-adv-x="1605" 
d="M84 721v15q0 144 56 280q58 142 156.5 246t235.5 166q129 57 265 57h18q238 0 418 -116t260 -318l-209 -74q-62 141 -185.5 220t-283.5 79q-140 0 -256.5 -73t-183 -200.5t-66.5 -281.5q0 -232 145 -381.5t371 -149.5q162 0 295 95q134 96 152 321v23h-488v194h695v-823
h-207v158q-79 -90 -195.5 -137.5t-251.5 -47.5h-11q-157 0 -292 56q-140 58 -236 159t-150 239q-52 135 -52 288v6z" />
    <glyph glyph-name="H" unicode="H" horiz-adv-x="1449" 
d="M172 0v1454h207v-616l694 -2v618h205v-1454h-205v635l-694 2v-637h-207z" />
    <glyph glyph-name="I" unicode="I" horiz-adv-x="550" 
d="M172 0v1454h207v-1454h-207z" />
    <glyph glyph-name="J" unicode="J" horiz-adv-x="1056" 
d="M41 406v49h207v-49q0 -61 23 -108.5t58 -73t71 -38.5q31 -10 58 -10h9h9q31 0 64 11q39 13 75 39.5t59.5 75t23.5 110.5v1042h207v-1053q0 -188 -118 -307t-312 -119q-201 0 -317.5 117.5t-116.5 313.5z" />
    <glyph glyph-name="K" unicode="K" horiz-adv-x="1298" 
d="M172 -2v1456h207v-770l608 770h279l-588 -733l582 -721h-279l-440 551l-162 -203v-350h-207z" />
    <glyph glyph-name="L" unicode="L" horiz-adv-x="1067" 
d="M172 0v1454h207v-1247h633v-207h-811h-29z" />
    <glyph glyph-name="M" unicode="M" horiz-adv-x="1757" 
d="M172 0v1454h205l502 -1206l499 1206h207v-1454h-207v930l-397 -930h-205l-399 930v-930h-205z" />
    <glyph glyph-name="N" unicode="N" horiz-adv-x="1495" 
d="M172 0v1454h205l741 -1096v1096h205v-1454h-205l-741 1096v-1096h-205z" />
    <glyph glyph-name="O" unicode="O" horiz-adv-x="1603" 
d="M86 725v11q0 152 52 288q54 142 150 243t229 159q129 57 272 57h10h10q145 -1 275 -57q134 -58 230 -159t151 -243q53 -137 53 -288v-11v-13q0 -206 -91 -374q-93 -174 -259 -270q-161 -95 -355 -95h-12h-14q-137 -1 -265 55q-134 58 -230.5 159.5t-152.5 242.5
q-53 134 -53 279v16zM313 725q0 -234 137.5 -383t350.5 -149q221 0 355 145.5t134 386.5q0 242 -135.5 391.5t-355.5 149.5q-214 0 -350 -151.5t-136 -389.5z" />
    <glyph glyph-name="P" unicode="P" horiz-adv-x="1251" 
d="M172 0v1454h207l319 -2q231 -2 359.5 -115t128.5 -325v-2q0 -204 -125 -327t-340 -130v-2h-342v-551h-207zM379 752h315q132 0 205.5 68.5t73.5 185.5q0 118 -73 183.5t-208 65.5h-313v-503z" />
    <glyph glyph-name="Q" unicode="Q" horiz-adv-x="1630" 
d="M82 729v11q0 152 54 288q55 142 151 243t229 159q130 57 273 57h10h10q144 0 275 -57q134 -58 230.5 -159t151.5 -243q54 -136 54 -288v-11q0 -160 -52 -299t-149 -242l170 -194h-236l-71 82q-170 -105 -383 -105h-15q-184 0 -344 97q-167 102 -264 278q-94 172 -94 371
v12zM311 729q0 -236 138.5 -392.5t349.5 -156.5q133 0 237 58l-205 231h240l103 -117q116 146 116 377q0 158 -61 282.5t-173.5 194.5t-256.5 70q-216 0 -352 -154t-136 -393z" />
    <glyph glyph-name="R" unicode="R" horiz-adv-x="1329" 
d="M172 0v1454h209l379 -2q252 0 375 -135q110 -110 110 -293q0 -78 -25 -151.5t-69 -124.5q-85 -95 -190 -134l282 -614h-235l-258 582h-369v-582h-209zM381 776h369q159 0 223 88q43 61 43 148q0 100 -55 164q-65 77 -211 77l-369 2v-479z" />
    <glyph glyph-name="S" unicode="S" horiz-adv-x="1216" 
d="M68 367l208 30q16 -98 115 -155q105 -60 225 -60q126 0 207.5 60.5t81.5 152.5q0 68 -45 123t-127 78q-49 14 -280 59q-160 36 -245 136.5t-85 259.5q0 180 142 306t341 126q201 0 349 -100t182 -253l-207 -55q-24 91 -113.5 146t-206.5 55q-104 0 -178.5 -53t-93.5 -138
q-2 -6 -2 -32q0 -70 45.5 -121t130.5 -68q74 -18 225 -43q185 -35 285 -144t100 -276q0 -129 -71.5 -227.5t-187.5 -148.5t-255 -50q-136 0 -254.5 46.5t-197 137.5t-88.5 208z" />
    <glyph glyph-name="T" unicode="T" horiz-adv-x="1200" 
d="M33 1247v207h1136v-207h-464v-1247h-207v1247h-465z" />
    <glyph glyph-name="U" unicode="U" horiz-adv-x="1437" 
d="M156 512v942h209v-942q0 -94 53 -172.5t133.5 -121t167.5 -42.5t167.5 42.5t133.5 121t53 172.5v942h209v-942v-14q0 -144 -78 -266q-82 -128 -211 -196q-126 -67 -266 -67h-8h-8q-140 0 -266 67q-129 68 -211 196q-78 122 -78 266v14z" />
    <glyph glyph-name="V" unicode="V" horiz-adv-x="1392" 
d="M20 1454h242l434 -1175l434 1175h242l-573 -1454h-205z" />
    <glyph glyph-name="W" unicode="W" horiz-adv-x="2224" 
d="M35 1454h244l346 -1126l364 1126h244l364 -1126l349 1126h243l-485 -1454h-209l-383 1104l-385 -1104h-207z" />
    <glyph glyph-name="X" unicode="X" horiz-adv-x="1288" 
d="M23 0l499 737l-485 717h244l362 -536l365 536h243l-485 -717l502 -737h-246l-377 557l-379 -557h-243z" />
    <glyph glyph-name="Y" unicode="Y" horiz-adv-x="1249" 
d="M20 1454h244l359 -655v2l362 653h244l-502 -852v-602h-205v598z" />
    <glyph glyph-name="Z" unicode="Z" horiz-adv-x="1181" 
d="M84 207l762 1040l-760 -2v207l1008 2v-207l-762 -1040h751v-207h-995z" />
    <glyph glyph-name="bracketleft" unicode="[" horiz-adv-x="548" 
d="M106 -147v1751h433v-168h-254v-1416h254v-167h-433z" />
    <glyph glyph-name="backslash" unicode="\" horiz-adv-x="776" 
d="M0 1454h209l567 -1454h-207z" />
    <glyph glyph-name="bracketright" unicode="]" horiz-adv-x="548" 
d="M10 20h254v1414h-254v168h434v-1749h-434v167z" />
    <glyph glyph-name="asciicircum" unicode="^" horiz-adv-x="983" 
d="M195 983l211 471h206l211 -471h-207l-108 242l-107 -242h-206z" />
    <glyph glyph-name="underscore" unicode="_" horiz-adv-x="870" 
d="M123 -35h690v-155h-690v155z" />
    <glyph glyph-name="grave" unicode="`" horiz-adv-x="471" 
d="M-4 1937h227l176 -342h-217z" />
    <glyph glyph-name="a" unicode="a" horiz-adv-x="1064" 
d="M92 289v16q0 73 33 138q37 72 106 116q88 57 275 57h170q65 0 65 56v10q-7 75 -64 111t-149 36q-176 0 -258 -145l-155 86q139 244 436 244q170 0 282.5 -100.5t112.5 -268.5v-653h-203v100q-52 -56 -123.5 -87.5t-152.5 -31.5q-162 0 -268 86q-104 88 -107 230zM281 299
q0 -73 52 -111t140 -38q120 0 191.5 65t78.5 186v58q-94 -4 -235 -4q-106 0 -166.5 -42t-60.5 -114z" />
    <glyph glyph-name="b" unicode="b" horiz-adv-x="1239" 
d="M152 0v1454h208v-594q62 77 151.5 117.5t190.5 40.5q97 -1 183.5 -41.5t150 -110.5t98.5 -174q31 -93 31 -200v-25h-2q-6 -118 -47 -214t-106 -156.5t-145 -93t-167 -32.5q-202 0 -338 148v-119h-208zM367 487q0 -153 85 -243t207 -90q127 0 213 86.5t93 240.5v10
q1 150 -83 246q-86 99 -214 99t-214.5 -96t-86.5 -253z" />
    <glyph glyph-name="c" unicode="c" horiz-adv-x="1091" 
d="M74 487v9q0 98 40 192q42 98 110 169q70 71 164 113q90 40 183 40h9q158 0 281.5 -83t170.5 -220l-182 -66q-32 85 -100 133.5t-170 48.5q-136 0 -220 -96q-81 -93 -81 -240q0 -144 81 -237q82 -94 220 -94q95 0 162.5 44t95.5 113l178 -69q-51 -125 -167.5 -198
t-268.5 -73h-11q-129 1 -241 67q-118 70 -186 189q-68 117 -68 250v8z" />
    <glyph glyph-name="d" unicode="d" horiz-adv-x="1232" 
d="M74 514h2q6 121 48 218.5t108.5 159t149 94t173.5 32.5q94 0 178.5 -35.5t145.5 -101.5v573h208v-1454h-208v123q-63 -75 -150.5 -116.5t-185.5 -41.5t-185.5 39.5t-151.5 109.5q-64 71 -100 175q-32 93 -32 201v24zM274 502v-10q0 -150 84 -246q86 -99 213 -99
q128 0 214.5 96t86.5 251q0 158 -83.5 250t-208.5 92q-121 0 -209.5 -90t-94.5 -244h-2z" />
    <glyph glyph-name="e" unicode="e" horiz-adv-x="1132" 
d="M74 496v12q0 132 65 248q68 122 183 192q110 68 234 68h11q153 0 275 -81t176 -218q41 -98 41 -228l-2 -79h-778q26 -105 106 -172.5t182 -67.5q91 0 160.5 40.5t99.5 108.5l181 -67q-51 -128 -170 -203.5t-271 -75.5h-10q-123 1 -235 69q-116 72 -183 194
q-65 117 -65 248v12zM274 567h586q-5 33 -22 73t-39 65q-35 55 -96.5 86.5t-135.5 31.5q-104 0 -187 -72.5t-106 -183.5z" />
    <glyph glyph-name="f" unicode="f" horiz-adv-x="643" 
d="M33 805v178h145v168q0 152 90.5 244t233.5 92q59 0 108 -14l-43 -193q-27 6 -51 6q-62 0 -96.5 -39t-34.5 -112v-152h193v-178h-193l2 -805h-209v805h-145z" />
    <glyph glyph-name="g" unicode="g" horiz-adv-x="1216" 
d="M80 508q0 232 132.5 371t348.5 139q195 0 311 -141v108h209v-954q0 -199 -110 -342q-68 -87 -166.5 -134t-216.5 -47q-229 0 -373 138q-81 78 -121 194l180 66q20 -72 78 -121q89 -80 221 -80q170 0 244 121q55 82 55 205v112q-114 -141 -311 -141q-213 0 -347 137.5
t-134 368.5zM283 508q0 -145 84.5 -233.5t218.5 -88.5q123 0 203 90t81 236v2v2v2q0 144 -84 228.5t-200 84.5q-134 0 -218.5 -89t-84.5 -234z" />
    <glyph glyph-name="h" unicode="h" horiz-adv-x="1259" 
d="M152 0v1454h208v-557q110 143 299 143q203 0 334 -122q131 -119 131 -394v-524h-209v516q0 153 -70.5 233t-185.5 80q-121 0 -205 -86t-94 -239l-2 -504h-206z" />
    <glyph glyph-name="i" unicode="i" horiz-adv-x="522" 
d="M115 1327q0 60 44 104t105 44q57 0 100.5 -44t43.5 -104t-43.5 -103.5t-100.5 -43.5q-61 0 -105 43.5t-44 103.5zM154 0v983h206v-983h-206z" />
    <glyph glyph-name="j" unicode="j" horiz-adv-x="575" 
d="M-45 -274q63 0 107.5 12t71 32t42.5 54.5t22 70.5t9 89l-4 1001h215l-6 -1030q0 -168 -95 -307q-93 -140 -362 -140v218zM156 1323q0 63 44 107.5t107 44.5t106.5 -44.5t43.5 -107.5q0 -62 -44.5 -107t-105.5 -45t-106 45t-45 107z" />
    <glyph glyph-name="k" unicode="k" horiz-adv-x="999" 
d="M152 0v1454h206v-852l371 381h254l-410 -424l410 -559h-229l-312 426l-84 -88v-338h-206z" />
    <glyph glyph-name="l" unicode="l" horiz-adv-x="645" 
d="M152 254v1200h206l2 -1169q0 -54 22 -74.5t69 -20.5l110 -2v-188l-201 2q-208 0 -208 252z" />
    <glyph glyph-name="m" unicode="m" horiz-adv-x="1785" 
d="M152 0v985h202v-98q44 57 111.5 91t146.5 38q116 0 202 -53.5t134 -151.5q45 94 124 148t183 55q177 0 286.5 -121t109.5 -309v-584h-203l4 594q0 109 -61.5 171t-157.5 62q-99 0 -167 -68.5t-69 -176.5v-582h-200l2 596q0 107 -59 170t-152 63q-95 0 -161 -62.5
t-73 -168.5v-598h-202z" />
    <glyph glyph-name="n" unicode="n" horiz-adv-x="1243" 
d="M152 0l2 983h198v-131q57 79 140 121.5t180 42.5q188 -3 311 -117q125 -113 125 -371v-528h-203v518q0 156 -69 233.5t-191 77.5q-121 0 -203.5 -83.5t-89.5 -223.5v-522h-200z" />
    <glyph glyph-name="o" unicode="o" horiz-adv-x="1140" 
d="M74 492v12q0 134 64 250q66 122 182 192q112 68 240 68h11q136 0 250 -69.5t180 -190t66 -262.5t-66 -261.5t-180 -188.5t-250 -69h-10q-125 0 -237 69q-116 72 -185 193q-65 116 -65 246v11zM279 489q0 -135 82 -229t210 -94q132 0 211.5 90t79.5 233q0 142 -81 235
t-210 93q-134 0 -213 -94t-79 -234z" />
    <glyph glyph-name="p" unicode="p" horiz-adv-x="1239" 
d="M152 -463v1446h217v-115q61 73 147.5 111.5t185.5 38.5q97 -1 183.5 -41.5t150 -110.5t98.5 -174q31 -93 31 -200v-25h-2q-12 -228 -145 -363.5t-322 -138.5q-96 0 -180.5 38t-146.5 108v-574h-217zM369 451q6 -137 90.5 -220.5t195.5 -83.5q122 0 211 86q90 87 99 248
v10q0 150 -83 246q-87 99 -214 99q-123 0 -211 -91q-85 -91 -88 -241v-53z" />
    <glyph glyph-name="q" unicode="q" horiz-adv-x="1239" 
d="M74 453q0 250 136 405.5t359 155.5q88 0 166 -37.5t135 -106.5v115h217v-1446h-217v506q-118 -143 -305 -143q-221 0 -354.5 152t-136.5 399zM274 457q1 -164 84 -263.5t213 -99.5q119 0 204 84.5t95 224.5v113q-10 139 -93 223t-202 86q-131 0 -215.5 -101.5
t-85.5 -266.5z" />
    <glyph glyph-name="r" unicode="r" horiz-adv-x="729" 
d="M152 983h202v-123q84 124 295 124q19 0 39 -1v-188q-34 6 -63 6q-115 0 -189 -78t-80 -203v-520h-202z" />
    <glyph glyph-name="s" unicode="s" horiz-adv-x="911" 
d="M63 242l195 32q11 -56 66 -89t139 -33q78 0 121 30.5t43 87.5q0 42 -27 68t-88 39q-38 7 -186 45q-106 26 -167 101.5t-61 178.5q0 130 102 222t249 92q146 0 249.5 -69t132.5 -185l-190 -43q-13 55 -63.5 87t-120.5 32q-74 0 -119 -34t-45 -93q0 -38 25 -65.5t71 -37.5
q113 -28 195 -45q239 -58 239 -289q0 -134 -102 -217q-104 -84 -258 -84q-156 0 -265.5 73.5t-134.5 195.5z" />
    <glyph glyph-name="t" unicode="t" horiz-adv-x="700" 
d="M33 807v176h174v311h209v-311h200v-176h-200v-522q0 -54 21.5 -74.5t68.5 -20.5l110 -2v-188l-200 2q-103 0 -156 64.5t-53 187.5v553h-174z" />
    <glyph glyph-name="u" unicode="u" horiz-adv-x="1222" 
d="M141 461v522h203v-512q0 -152 69.5 -232.5t188.5 -80.5q131 0 204 91.5t73 268.5v465h202v-983h-202v119q-100 -146 -297 -146q-441 0 -441 488z" />
    <glyph glyph-name="v" unicode="v" horiz-adv-x="1050" 
d="M20 983h209l291 -743l301 743h209l-414 -983h-192h-2z" />
    <glyph glyph-name="w" unicode="w" horiz-adv-x="1564" 
d="M27 983h217l211 -684l219 684h217l211 -684l221 684h213l-340 -983h-190h-2l-224 666l-231 -666h-191h-2z" />
    <glyph glyph-name="x" unicode="x" horiz-adv-x="980" 
d="M23 0l352 492l-350 491h221l246 -346l245 346h221l-350 -491l353 -492h-224l-245 346l-246 -346h-223z" />
    <glyph glyph-name="y" unicode="y" horiz-adv-x="1091" 
d="M16 983h220l325 -729l293 729h217l-579 -1442h-218l187 465z" />
    <glyph glyph-name="z" unicode="z" horiz-adv-x="931" 
d="M78 0v188l530 607h-530v188h776v-188l-522 -607h522v-188h-776z" />
    <glyph glyph-name="braceleft" unicode="{" horiz-adv-x="591" 
d="M98 643v160q50 0 104 55.5t54 140.5v357q0 97 51 157.5t144 79.5q49 9 98 9v-148q-59 0 -92 -27t-33 -81v-379q0 -68 -30.5 -131.5t-82.5 -108.5q113 -93 113 -242v-356q0 -67 33 -100t92 -33v-146q-65 0 -107 11q-88 19 -137 80.5t-49 156.5v355q0 62 -29 107.5
t-63.5 64t-65.5 18.5z" />
    <glyph glyph-name="bar" unicode="|" horiz-adv-x="423" 
d="M109 -184v1798h206v-1798h-206z" />
    <glyph glyph-name="braceright" unicode="}" horiz-adv-x="565" 
d="M10 0q59 0 92 33t33 100v352q0 149 113 242q-52 45 -82.5 108.5t-30.5 131.5v379q0 54 -33 81t-92 27v148q50 0 96 -9q95 -19 146 -79.5t51 -157.5v-357q0 -85 54 -140.5t104 -55.5v-160q-31 0 -65.5 -18.5t-63.5 -64t-29 -107.5v-351q0 -95 -49 -156.5t-137 -80.5
q-38 -10 -107 -10v145z" />
    <glyph glyph-name="asciitilde" unicode="~" horiz-adv-x="948" 
d="M82 584q0 93 64.5 155t162.5 62q83 0 201 -86q85 -64 135 -64q41 0 65 20.5t29 53.5h127q0 -92 -65 -154.5t-162 -62.5q-84 0 -203 88q-85 61 -133 61q-41 0 -66 -20.5t-30 -52.5h-125z" />
    <glyph glyph-name="uni00A0" unicode="&#xa0;" horiz-adv-x="477" 
 />
    <glyph glyph-name="exclamdown" unicode="&#xa1;" horiz-adv-x="589" 
d="M160 1112q0 55 42 96t99 41q56 0 97.5 -41t41.5 -96q0 -57 -41.5 -98t-97.5 -41q-57 0 -99 41t-42 98zM174 -233v585l25 531h190l27 -531v-585h-242z" />
    <glyph glyph-name="cent" unicode="&#xa2;" horiz-adv-x="1136" 
d="M90 729q0 182 113 326.5t282 181.5l-2 217h183v-209q135 -17 237.5 -96.5t145.5 -200.5l-185 -65q-31 83 -99.5 132.5t-170.5 49.5q-134 0 -217.5 -97.5t-83.5 -238.5q0 -143 83.5 -240.5t217.5 -97.5q194 0 258 162l184 -72q-44 -108 -142.5 -178.5t-227.5 -87.5v-217
h-183l2 225q-170 37 -282.5 180t-112.5 326z" />
    <glyph glyph-name="sterling" unicode="&#xa3;" horiz-adv-x="1232" 
d="M49 651v180h162q-25 86 -25 150q0 24 11 92q15 177 139 289q126 111 309 111q153 0 275 -93q121 -87 165 -233q-70 -25 -141 -45l-55 -19q-23 83 -91.5 137t-152.5 54q-102 0 -167 -59t-77 -160q-6 -35 -6 -66q0 -48 29 -158h508v-180h-453q15 -53 15 -119
q0 -103 -38.5 -191t-109.5 -134h416q211 0 211 194l-2 31l207 12l2 -38q0 -185 -114 -295.5t-304 -110.5h-699v207q95 0 161.5 93.5t66.5 219.5q0 70 -21 131h-221z" />
    <glyph glyph-name="currency" unicode="&#xa4;" horiz-adv-x="1288" 
d="M82 309l145 142q-82 125 -82 272q0 154 91 287l-142 139l135 137l144 -141q127 80 272 80q156 0 289 -92l137 137l135 -133l-139 -142q80 -130 80 -272q0 -155 -92 -285l139 -143l-137 -135l-139 145q-125 -82 -273 -82q-155 0 -283 90l-145 -143zM338 723
q0 -125 91 -216t216 -91t217 91.5t92 215.5q0 126 -91.5 217.5t-217.5 91.5q-127 0 -217 -91t-90 -218z" />
    <glyph glyph-name="yen" unicode="&#xa5;" horiz-adv-x="1310" 
d="M51 1454h244l358 -655v2l363 653h244l-422 -715h239v-174h-321v-129h321v-174h-321v-262h-205v262h-324v174h324v129h-324v174h244z" />
    <glyph glyph-name="brokenbar" unicode="&#xa6;" horiz-adv-x="763" 
d="M279 -143v712h206v-712h-206zM279 928v692h206v-692h-206z" />
    <glyph glyph-name="section" unicode="&#xa7;" horiz-adv-x="1056" 
d="M141 244l195 32q11 -57 65.5 -89.5t141.5 -32.5q75 0 118.5 34t43.5 91q0 85 -113 106l-186 47q-106 26 -168 102.5t-62 182.5q0 144 115 233q-111 76 -111 221q0 133 101 223.5t249 90.5q147 0 250.5 -69t132.5 -187l-188 -43q-18 56 -68 87.5t-127 31.5
q-71 0 -113 -35.5t-42 -91.5q0 -79 96 -103l90 -20q55 -11 103 -25q126 -31 183.5 -104t57.5 -189q0 -137 -104 -225q100 -78 100 -229q0 -134 -101.5 -223t-256.5 -89q-156 0 -266.5 75t-135.5 198zM377 721q0 -47 33 -79t96 -36l37 -4h6q75 -2 122.5 31t47.5 88
q0 26 -10 49q-28 57 -105 72q-28 4 -35 4l-22 2h-8q-76 0 -119 -37t-43 -90z" />
    <glyph glyph-name="dieresis" unicode="&#xa8;" horiz-adv-x="792" 
d="M41 1761q0 62 43 105t106 43q60 0 103 -44t43 -104t-43 -102.5t-103 -42.5q-63 0 -106 42.5t-43 102.5zM455 1761q0 61 43.5 104.5t105.5 43.5q60 0 104 -44t44 -104t-44 -102.5t-104 -42.5q-62 0 -105.5 42.5t-43.5 102.5z" />
    <glyph glyph-name="copyright" unicode="&#xa9;" horiz-adv-x="1679" 
d="M82 733q-4 200 100.5 376.5t281.5 280t376 99.5q151 3 292.5 -58t244 -163.5t163 -243.5t57.5 -291q3 -151 -57.5 -293t-163 -245.5t-244 -164.5t-292.5 -57q-151 -4 -292.5 57t-244.5 164.5t-163.5 245.5t-57.5 293zM258 733q-4 -155 76 -292t216 -217t290 -77
q116 -2 225 45t188 126.5t125.5 188.5t44.5 226q2 115 -44.5 223.5t-125.5 188t-188 126.5t-225 44q-153 4 -289.5 -76t-216.5 -216.5t-76 -289.5zM475 729q0 156 109.5 268.5t259.5 112.5q119 0 210.5 -61.5t123.5 -165.5l-138 -47q-21 63 -71 99t-125 36q-95 0 -154 -70
t-59 -172t59 -171t154 -69q140 0 186 119l139 -55q-37 -92 -126 -147.5t-199 -55.5q-150 0 -259.5 112t-109.5 267z" />
    <glyph glyph-name="guillemotleft" unicode="&#xab;" horiz-adv-x="1144" 
d="M82 492l332 491h221l-332 -491l332 -492h-221zM543 492l331 491h222l-332 -491l332 -492h-222z" />
    <glyph glyph-name="logicalnot" unicode="&#xac;" horiz-adv-x="1128" 
d="M82 510v192h965v-546h-193v354h-772z" />
    <glyph glyph-name="uni00AD" unicode="&#xad;" horiz-adv-x="942" 
d="M86 436v207h770v-207h-770z" />
    <glyph glyph-name="registered" unicode="&#xae;" horiz-adv-x="708" 
d="M41 1169q0 128 92.5 220t222.5 92q128 0 220 -92.5t92 -219.5q0 -130 -92 -222.5t-220 -92.5q-130 0 -222.5 92t-92.5 223zM109 1169q0 -106 70.5 -176.5t176.5 -70.5q103 0 174 71q72 72 72 176q0 102 -72 174t-174 72q-104 0 -176 -72q-71 -71 -71 -174zM262 1028v281
h60h34q104 3 107 -78v-6v-8q-3 -53 -45 -72l51 -117h-70l-47 107h-30v-107h-60zM322 1190h49v-2q16 1 21 9t5 28q-3 24 -41 24h-34v-59z" />
    <glyph glyph-name="macron" unicode="&#xaf;" horiz-adv-x="718" 
d="M49 1655v186h623v-186h-623z" />
    <glyph glyph-name="degree" unicode="&#xb0;" horiz-adv-x="552" 
d="M41 1249q0 96 70 166t165 70q96 0 166 -70t70 -166t-70 -166q-69 -69 -166 -69q-96 0 -165 69q-70 70 -70 166zM178 1249q0 -38 30 -68t68 -30t68.5 30t30.5 68t-30.5 68.5t-68.5 30.5q-39 0 -68.5 -29t-29.5 -70z" />
    <glyph glyph-name="plusminus" unicode="&#xb1;" horiz-adv-x="1079" 
d="M109 0v195h862v-195h-862zM109 580v192h335v211h193v-211h334v-192h-334v-213h-193v213h-335z" />
    <glyph glyph-name="uni00B2" unicode="&#xb2;" horiz-adv-x="663" 
d="M63 700q-5 80 17.5 130.5t81.5 91.5q209 161 237 186q45 40 54 78q6 60 -26 95.5t-89 35.5q-54 0 -82.5 -28t-28.5 -79q0 -20 2 -26h-149q-9 120 70.5 199t201.5 79q115 0 181.5 -72t66.5 -192q0 -58 -25 -106q-24 -42 -62.5 -78.5t-123.5 -100.5l-84 -63h277v-148z" />
    <glyph glyph-name="uni00B3" unicode="&#xb3;" horiz-adv-x="759" 
d="M117 971h147q-2 -6 -2 -25q0 -47 33 -76.5t84 -29.5q50 0 83.5 31.5t33.5 80.5q0 56 -43 90q-31 25 -74 25q-39 0 -64 -14l-61 116l133 136h-242v149h471v-129l-133 -135q68 -27 103 -74q57 -69 57 -164q0 -108 -78 -186q-77 -74 -186 -74q-116 0 -193.5 82t-68.5 197z
" />
    <glyph glyph-name="acute" unicode="&#xb4;" horiz-adv-x="454" 
d="M2 1595l176 342h236l-189 -342h-223z" />
    <glyph glyph-name="mu" unicode="&#xb5;" horiz-adv-x="1380" 
d="M117 -494v1475h205v-463q0 -177 73 -268.5t203 -91.5q125 0 197 82.5t79 244.5v498h207v-698q0 -55 21.5 -75t71.5 -20l108 -2v-188l-201 2q-140 0 -186 119q-95 -142 -289 -148h-8h-8q-171 3 -268 121v-588h-205z" />
    <glyph glyph-name="paragraph" unicode="&#xb6;" horiz-adv-x="911" 
d="M82 1044q0 149 90 265q92 114 234 149h206v-1454h-206v625q-142 35 -234 149q-90 119 -90 266zM735 0v1454h94v-1454h-94z" />
    <glyph glyph-name="periodcentered" unicode="&#xb7;" horiz-adv-x="593" 
d="M106 524q0 78 56.5 133.5t134.5 55.5t133 -55.5t55 -133.5q0 -75 -56.5 -130.5t-131.5 -55.5q-78 0 -134.5 55.5t-56.5 130.5z" />
    <glyph glyph-name="cedilla" unicode="&#xb8;" horiz-adv-x="1228" 
d="M492 -35l90 119l98 -2v-59l-47 -60h65q61 0 97 -42.5t36 -102.5q0 -57 -37.5 -101.5t-91.5 -44.5h-210v107h178q20 0 31.5 12t11.5 31q0 35 -43 35h-178v108z" />
    <glyph glyph-name="uni00B9" unicode="&#xb9;" horiz-adv-x="520" 
d="M117 1223v149h88q42 0 51 41v41h150v-754h-150v525q-4 -2 -18 -2h-121z" />
    <glyph glyph-name="guillemotright" unicode="&#xbb;" horiz-adv-x="1144" 
d="M47 0l332 492l-332 491h223l332 -491l-332 -492h-223zM508 0l332 492l-332 491h223l332 -491l-332 -492h-223z" />
    <glyph glyph-name="onequarter" unicode="&#xbc;" horiz-adv-x="1951" 
d="M74 1223v149h88q42 0 51 41v41h149v-752h-149v523q-4 -2 -18 -2h-121zM174 0l1108 1454h213l-1108 -1454h-213zM1245 127v152l354 475h154v-475l96 -3v-149h-96v-141h-154v141h-354zM1432 279h167v229z" />
    <glyph glyph-name="onehalf" unicode="&#xbd;" horiz-adv-x="1861" 
d="M74 1223v149h88q42 0 51 41v41h149v-752h-149v523q-4 -2 -18 -2h-121zM174 0l1108 1454h213l-1108 -1454h-213zM1239 -2q-2 82 19.5 131t78.5 90q68 51 238 187q45 39 53 77q7 59 -24.5 95t-87.5 36q-54 0 -83.5 -27.5t-29.5 -78.5q0 -21 2 -27h-150q-9 120 70 199
q77 80 201 80q108 0 176 -64.5t74 -169.5h2q6 -69 -19 -123q-22 -48 -60.5 -85t-133.5 -109l-82 -62h276v-147z" />
    <glyph glyph-name="threequarters" unicode="&#xbe;" horiz-adv-x="2158" 
d="M104 969h148q-2 -6 -2 -25q0 -47 33.5 -77.5t83.5 -30.5t83 32.5t33 81.5q0 57 -41 92q-31 25 -75 25q-39 0 -64 -14l-61 116l133 136h-242v149h471v-129l-133 -135q67 -27 102 -74q58 -70 58 -166q0 -108 -78 -186q-77 -74 -186 -74q-116 0 -194 82t-69 197zM381 0
l1108 1454h213l-1108 -1454h-213zM1452 127v152l354 475h154v-475l96 -3v-149h-96v-141h-154v141h-354zM1638 279h168v229z" />
    <glyph glyph-name="questiondown" unicode="&#xbf;" horiz-adv-x="1214" 
d="M131 244q0 113 42.5 198.5t143.5 165.5l62 47q98 75 135.5 116t38.5 91v49h207v-59q0 -51 -16.5 -97t-52.5 -90t-75.5 -80.5t-101.5 -84.5l-43 -35q-131 -107 -131 -221q0 -119 76.5 -194t189.5 -75q106 0 186 81t80 188h211q0 -97 -37.5 -185t-101.5 -151.5t-152.5 -101
t-185.5 -37.5q-198 0 -336.5 138.5t-138.5 336.5zM506 1141q0 56 42 97.5t99 41.5t99 -41.5t42 -97.5q0 -57 -42 -99.5t-99 -42.5t-99 42.5t-42 99.5z" />
    <glyph glyph-name="Agrave" unicode="&#xc0;" 
d="M20 0l588 1454h221h15l588 -1454h-242l-150 381h-630l-148 -381h-242zM434 1937h228l176 -342h-217zM483 567h486l-244 621z" />
    <glyph glyph-name="Aacute" unicode="&#xc1;" 
d="M20 0l588 1454h221h15l588 -1454h-242l-150 381h-630l-148 -381h-242zM483 567h486l-244 621zM621 1595l176 342h235l-188 -342h-223z" />
    <glyph glyph-name="Acircumflex" unicode="&#xc2;" 
d="M20 0l588 1454h221h15l588 -1454h-242l-150 381h-630l-148 -381h-242zM430 1595l174 342h201h47l176 -342h-190l-109 201l-111 -201h-188zM483 567h486l-244 621z" />
    <glyph glyph-name="Atilde" unicode="&#xc3;" 
d="M20 0l588 1454h221h15l588 -1454h-242l-150 381h-630l-148 -381h-242zM371 1712q-9 101 53 176.5t156 75.5q138 0 211 -129q31 -44 51.5 -60t44.5 -16q23 0 37 17.5t14 44.5q0 26 -8 45h166q2 -6 2 -33q0 -98 -61.5 -167t-149.5 -69q-67 0 -124 36t-95 102
q-27 42 -43 54.5t-45 12.5q-23 0 -38.5 -20t-15.5 -51q0 -15 2 -19h-157zM483 567h486l-244 621z" />
    <glyph glyph-name="Adieresis" unicode="&#xc4;" 
d="M20 0l588 1454h221h15l588 -1454h-242l-150 381h-630l-148 -381h-242zM375 1761q0 62 43 105t106 43q60 0 103 -44t43 -104t-43 -102.5t-103 -42.5q-63 0 -106 42.5t-43 102.5zM483 567h486l-244 621zM788 1761q0 61 44 104.5t106 43.5q60 0 103.5 -44t43.5 -104
t-43.5 -102.5t-103.5 -42.5q-62 0 -106 42.5t-44 102.5z" />
    <glyph glyph-name="Aring" unicode="&#xc5;" 
d="M20 0l588 1454h221h15l588 -1454h-242l-150 381h-630l-148 -381h-242zM475 1808q0 102 76.5 180t177.5 78t177.5 -78t76.5 -180q0 -104 -76 -180t-178 -76q-109 0 -181.5 73.5t-72.5 182.5zM483 567h486l-244 621zM614 1812q0 -51 32.5 -84.5t82.5 -33.5t82.5 33.5
t32.5 84.5q0 48 -33 80.5t-82 32.5t-82 -32.5t-33 -80.5z" />
    <glyph glyph-name="AE" unicode="&#xc6;" horiz-adv-x="1925" 
d="M41 0l565 1454h223h91h206l689 -2l-3 -207l-686 2v-413h621l-2 -201h-619v-426l689 -2l-3 -205l-686 2v-2h-206v381h-496l-141 -381h-242zM496 567h424v680h-168z" />
    <glyph glyph-name="Ccedilla" unicode="&#xc7;" horiz-adv-x="1540" 
d="M86 727q-3 149 55.5 290t157 244.5t233.5 165t279 58.5q107 1 202 -27t163.5 -71.5t125 -102t91 -114t55.5 -111.5l-209 -78q-48 128 -163.5 207.5t-264.5 79.5q-138 0 -253 -72t-181 -196.5t-66 -272.5q0 -225 144.5 -378.5t355.5 -153.5q146 0 265 74t177 194l207 -96
q-75 -164 -227 -267.5t-344 -122.5l-43 -55h65q61 0 97 -42.5t36 -102.5q0 -57 -37.5 -101.5t-91.5 -44.5h-210v107h178q20 0 31.5 12t11.5 31q0 35 -43 35h-178v108l38 53q-176 12 -329 118t-242.5 275t-85.5 357z" />
    <glyph glyph-name="Egrave" unicode="&#xc8;" horiz-adv-x="1185" 
d="M172 0v1454h207h688l-2 -207h-686v-413h620l-2 -201h-618v-428h688l-2 -205h-881h-12zM313 1935h228l176 -342h-217z" />
    <glyph glyph-name="Eacute" unicode="&#xc9;" horiz-adv-x="1185" 
d="M172 0v1454h207h688l-2 -207h-686v-413h620l-2 -201h-618v-428h688l-2 -205h-881h-12zM500 1593l176 342h235l-188 -342h-223z" />
    <glyph glyph-name="Ecircumflex" unicode="&#xca;" horiz-adv-x="1185" 
d="M172 0v1454h207h688l-2 -207h-686v-413h620l-2 -201h-618v-428h688l-2 -205h-881h-12zM309 1593l174 342h201h47l176 -342h-190l-109 201l-110 -201h-189z" />
    <glyph glyph-name="Edieresis" unicode="&#xcb;" horiz-adv-x="1185" 
d="M172 0v1454h207h688l-2 -207h-686v-413h620l-2 -201h-618v-428h688l-2 -205h-881h-12zM254 1759q0 62 43 105t106 43q60 0 103 -44t43 -104t-43 -102.5t-103 -42.5q-63 0 -106 42.5t-43 102.5zM668 1759q0 61 43.5 104.5t105.5 43.5q60 0 104 -44t44 -104t-44 -102.5
t-104 -42.5q-62 0 -105.5 42.5t-43.5 102.5z" />
    <glyph glyph-name="Igrave" unicode="&#xcc;" horiz-adv-x="550" 
d="M-20 1937h227l176 -342h-217zM172 0v1454h207v-1454h-207z" />
    <glyph glyph-name="Iacute" unicode="&#xcd;" horiz-adv-x="550" 
d="M166 1595l176 342h236l-189 -342h-223zM172 0v1454h207v-1454h-207z" />
    <glyph glyph-name="Icircumflex" unicode="&#xce;" horiz-adv-x="550" 
d="M-25 1595l175 342h200h47l176 -342h-190l-109 201l-110 -201h-189zM172 0v1454h207v-1454h-207z" />
    <glyph glyph-name="Idieresis" unicode="&#xcf;" horiz-adv-x="550" 
d="M-80 1761q0 62 43.5 105t106.5 43q60 0 102.5 -44t42.5 -104t-42.5 -102.5t-102.5 -42.5q-63 0 -106.5 42.5t-43.5 102.5zM172 0v1454h207v-1454h-207zM334 1761q0 61 43.5 104.5t105.5 43.5q60 0 104 -44t44 -104t-44 -102.5t-104 -42.5q-62 0 -105.5 42.5t-43.5 102.5z
" />
    <glyph glyph-name="Eth" unicode="&#xd0;" horiz-adv-x="1615" 
d="M119 625v206h172v625h207h256q158 2 297.5 -52.5t238.5 -150.5t155 -233t54 -293q3 -210 -93 -377.5t-267.5 -260t-384.5 -89.5h-336h-127v625h-172zM498 190h256q241 0 380.5 144.5t139.5 392.5q0 245 -141.5 392t-378.5 147h-256v-435h207v-206h-207v-435z" />
    <glyph glyph-name="Ntilde" unicode="&#xd1;" horiz-adv-x="1495" 
d="M172 0v1454h205l741 -1096v1096h205v-1454h-205l-741 1096v-1096h-205zM399 1712q-9 101 53 176.5t156 75.5q138 0 211 -129q31 -44 51.5 -60t44.5 -16q23 0 37.5 17.5t14.5 44.5q0 24 -9 45h166q2 -6 2 -33q0 -98 -61.5 -167t-149.5 -69q-67 0 -124 36t-95 102
q-27 42 -43 54.5t-45 12.5q-23 0 -38 -20t-15 -51q0 -15 2 -19h-158z" />
    <glyph glyph-name="Ograve" unicode="&#xd2;" horiz-adv-x="1603" 
d="M86 725q-2 158 52.5 299.5t150 242.5t228.5 159.5t282 56.5q150 2 284.5 -56.5t230.5 -159.5t151 -242.5t53 -299.5q3 -213 -91 -386.5t-259.5 -271t-366.5 -94.5q-146 -3 -279.5 55.5t-230 159.5t-152.5 242t-53 295zM313 725q0 -234 137.5 -383t350.5 -149
q221 0 355 145.5t134 386.5q0 242 -135.5 391.5t-355.5 149.5q-214 0 -350 -151.5t-136 -389.5zM504 1937h227l176 -342h-217z" />
    <glyph glyph-name="Oacute" unicode="&#xd3;" horiz-adv-x="1603" 
d="M86 725q-2 158 52.5 299.5t150 242.5t228.5 159.5t282 56.5q150 2 284.5 -56.5t230.5 -159.5t151 -242.5t53 -299.5q3 -213 -91 -386.5t-259.5 -271t-366.5 -94.5q-146 -3 -279.5 55.5t-230 159.5t-152.5 242t-53 295zM313 725q0 -234 137.5 -383t350.5 -149
q221 0 355 145.5t134 386.5q0 242 -135.5 391.5t-355.5 149.5q-214 0 -350 -151.5t-136 -389.5zM690 1595l176 342h236l-189 -342h-223z" />
    <glyph glyph-name="Ocircumflex" unicode="&#xd4;" horiz-adv-x="1603" 
d="M86 725q-2 158 52.5 299.5t150 242.5t228.5 159.5t282 56.5q150 2 284.5 -56.5t230.5 -159.5t151 -242.5t53 -299.5q3 -213 -91 -386.5t-259.5 -271t-366.5 -94.5q-146 -3 -279.5 55.5t-230 159.5t-152.5 242t-53 295zM313 725q0 -234 137.5 -383t350.5 -149
q221 0 355 145.5t134 386.5q0 242 -135.5 391.5t-355.5 149.5q-214 0 -350 -151.5t-136 -389.5zM500 1595l174 342h200h48l176 -342h-191l-108 201l-111 -201h-188z" />
    <glyph glyph-name="Otilde" unicode="&#xd5;" horiz-adv-x="1603" 
d="M86 725q-2 158 52.5 299.5t150 242.5t228.5 159.5t282 56.5q150 2 284.5 -56.5t230.5 -159.5t151 -242.5t53 -299.5q3 -213 -91 -386.5t-259.5 -271t-366.5 -94.5q-146 -3 -279.5 55.5t-230 159.5t-152.5 242t-53 295zM313 725q0 -234 137.5 -383t350.5 -149
q221 0 355 145.5t134 386.5q0 242 -135.5 391.5t-355.5 149.5q-214 0 -350 -151.5t-136 -389.5zM442 1712q-9 101 53 176.5t156 75.5q137 0 211 -129q31 -44 51.5 -60t44.5 -16q23 0 37.5 17.5t14.5 44.5q0 24 -9 45h166q2 -6 2 -33q0 -98 -61.5 -167t-149.5 -69
q-67 0 -124 36t-95 102q-27 42 -43 54.5t-45 12.5q-23 0 -38 -20t-15 -51q0 -15 2 -19h-158z" />
    <glyph glyph-name="Odieresis" unicode="&#xd6;" horiz-adv-x="1603" 
d="M86 725q-2 158 52.5 299.5t150 242.5t228.5 159.5t282 56.5q150 2 284.5 -56.5t230.5 -159.5t151 -242.5t53 -299.5q3 -213 -91 -386.5t-259.5 -271t-366.5 -94.5q-146 -3 -279.5 55.5t-230 159.5t-152.5 242t-53 295zM313 725q0 -234 137.5 -383t350.5 -149
q221 0 355 145.5t134 386.5q0 242 -135.5 391.5t-355.5 149.5q-214 0 -350 -151.5t-136 -389.5zM444 1761q0 62 43.5 105t106.5 43q60 0 102.5 -44t42.5 -104t-42.5 -102.5t-102.5 -42.5q-63 0 -106.5 42.5t-43.5 102.5zM858 1761q0 61 44 104.5t106 43.5q60 0 103.5 -44
t43.5 -104t-43.5 -102.5t-103.5 -42.5q-62 0 -106 42.5t-44 102.5z" />
    <glyph glyph-name="multiply" unicode="&#xd7;" horiz-adv-x="1622" 
d="M96 135l580 594l-580 592l140 137l575 -590l575 590l140 -137l-580 -592l580 -594l-140 -135l-575 590l-575 -590z" />
    <glyph glyph-name="Oslash" unicode="&#xd8;" horiz-adv-x="1667" 
d="M119 725q-2 158 52.5 299.5t149.5 242.5t228 159.5t282 56.5q166 0 314 -68l22 37h244l-94 -156q111 -105 172 -253t61 -318q3 -213 -91 -388.5t-259.5 -275t-365.5 -96.5q-158 0 -295 64l-21 -33h-260l98 156q-113 106 -175 255t-62 318zM346 723q0 -225 129 -379
l553 883q-91 39 -197 39q-214 0 -349.5 -152t-135.5 -391zM653 217q87 -35 181 -35q221 0 355 149.5t134 391.5q0 235 -125 381z" />
    <glyph glyph-name="Ugrave" unicode="&#xd9;" horiz-adv-x="1437" 
d="M156 512v942h209v-942q0 -94 53 -172.5t133.5 -121t167.5 -42.5t167.5 42.5t133.5 121t53 172.5v942h209v-942q4 -152 -77.5 -279.5t-211.5 -196.5t-274 -67q-144 -2 -274 67t-211.5 196.5t-77.5 279.5zM424 1937h227l176 -342h-217z" />
    <glyph glyph-name="Uacute" unicode="&#xda;" horiz-adv-x="1437" 
d="M156 512v942h209v-942q0 -94 53 -172.5t133.5 -121t167.5 -42.5t167.5 42.5t133.5 121t53 172.5v942h209v-942q4 -152 -77.5 -279.5t-211.5 -196.5t-274 -67q-144 -2 -274 67t-211.5 196.5t-77.5 279.5zM610 1595l176 342h236l-188 -342h-224z" />
    <glyph glyph-name="Ucircumflex" unicode="&#xdb;" horiz-adv-x="1437" 
d="M156 512v942h209v-942q0 -94 53 -172.5t133.5 -121t167.5 -42.5t167.5 42.5t133.5 121t53 172.5v942h209v-942q4 -152 -77.5 -279.5t-211.5 -196.5t-274 -67q-144 -2 -274 67t-211.5 196.5t-77.5 279.5zM420 1595l174 342h201h47l176 -342h-191l-108 201l-111 -201h-188z
" />
    <glyph glyph-name="Udieresis" unicode="&#xdc;" horiz-adv-x="1437" 
d="M156 512v942h209v-942q0 -94 53 -172.5t133.5 -121t167.5 -42.5t167.5 42.5t133.5 121t53 172.5v942h209v-942q4 -152 -77.5 -279.5t-211.5 -196.5t-274 -67q-144 -2 -274 67t-211.5 196.5t-77.5 279.5zM365 1761q0 62 43 105t106 43q60 0 102.5 -44t42.5 -104
t-42.5 -102.5t-102.5 -42.5q-63 0 -106 42.5t-43 102.5zM778 1761q0 61 44 104.5t106 43.5q60 0 103.5 -44t43.5 -104t-43.5 -102.5t-103.5 -42.5q-62 0 -106 42.5t-44 102.5z" />
    <glyph glyph-name="Yacute" unicode="&#xdd;" horiz-adv-x="1249" 
d="M20 1454h244l359 -655v2l362 653h244l-502 -852v-602h-205v598zM516 1593l176 342h236l-189 -342h-223z" />
    <glyph glyph-name="Thorn" unicode="&#xde;" horiz-adv-x="1222" 
d="M119 0v1454h207v-293h295q113 0 206 -36t152.5 -96.5t92 -138.5t32.5 -163q0 -86 -32 -163.5t-91.5 -137.5t-152.5 -95.5t-207 -35.5h-295v-295h-207zM326 494h284q123 0 197 67.5t74 165.5q0 100 -73.5 168t-197.5 68h-284v-469z" />
    <glyph glyph-name="germandbls" unicode="&#xdf;" horiz-adv-x="1067" 
d="M96 0v1112q-3 97 54 185.5t149 140t188 49.5q162 0 273.5 -108.5t111.5 -266.5q0 -165 -116 -272q100 -58 157.5 -156t57.5 -215q0 -126 -56.5 -232.5t-162.5 -171.5t-240 -65h-111v201h111q115 3 190 78q78 78 78 190q0 115 -82 188q-79 76 -198 76v174q83 0 135.5 59
t52.5 138q0 85 -56.5 138.5t-137.5 53.5t-137 -54.5t-56 -139.5v-1102h-205z" />
    <glyph glyph-name="agrave" unicode="&#xe0;" horiz-adv-x="1064" 
d="M92 289q-4 82 33 154t106 116q88 57 275 57h170q71 0 65 66q-7 75 -64 111t-149 36q-176 0 -258 -145l-155 86q139 244 436 244q170 0 282.5 -100.5t112.5 -268.5v-653h-203v100q-52 -56 -123.5 -87.5t-152.5 -31.5q-162 0 -268 86q-104 88 -107 230zM256 1499h227
l176 -342h-217zM281 299q0 -73 52 -111t140 -38q120 0 191.5 65t78.5 186v58q-94 -4 -235 -4q-106 0 -166.5 -42t-60.5 -114z" />
    <glyph glyph-name="aacute" unicode="&#xe1;" horiz-adv-x="1064" 
d="M92 289q-4 82 33 154t106 116q88 57 275 57h170q71 0 65 66q-7 75 -64 111t-149 36q-176 0 -258 -145l-155 86q139 244 436 244q170 0 282.5 -100.5t112.5 -268.5v-653h-203v100q-52 -56 -123.5 -87.5t-152.5 -31.5q-162 0 -268 86q-104 88 -107 230zM281 299
q0 -73 52 -111t140 -38q120 0 191.5 65t78.5 186v58q-94 -4 -235 -4q-106 0 -166.5 -42t-60.5 -114zM442 1157l176 342h236l-188 -342h-224z" />
    <glyph glyph-name="acircumflex" unicode="&#xe2;" horiz-adv-x="1064" 
d="M92 289q-4 82 33 154t106 116q88 57 275 57h170q71 0 65 66q-7 75 -64 111t-149 36q-176 0 -258 -145l-155 86q139 244 436 244q170 0 282.5 -100.5t112.5 -268.5v-653h-203v100q-52 -56 -123.5 -87.5t-152.5 -31.5q-162 0 -268 86q-104 88 -107 230zM252 1157l174 342
h201h47l176 -342h-191l-108 201l-111 -201h-188zM281 299q0 -73 52 -111t140 -38q120 0 191.5 65t78.5 186v58q-94 -4 -235 -4q-106 0 -166.5 -42t-60.5 -114z" />
    <glyph glyph-name="atilde" unicode="&#xe3;" horiz-adv-x="1064" 
d="M92 289q-4 82 33 154t106 116q88 57 275 57h170q71 0 65 66q-7 75 -64 111t-149 36q-176 0 -258 -145l-155 86q139 244 436 244q170 0 282.5 -100.5t112.5 -268.5v-653h-203v100q-52 -56 -123.5 -87.5t-152.5 -31.5q-162 0 -268 86q-104 88 -107 230zM195 1274
q-9 102 53 177t155 75q137 0 211 -129q31 -43 51.5 -59.5t45.5 -16.5q23 0 37 17t14 44q0 26 -8 45h166q2 -6 2 -32q0 -98 -61.5 -167t-149.5 -69q-67 0 -124 35.5t-95 101.5q-27 42 -43.5 55t-45.5 13q-23 0 -38 -20.5t-15 -51.5q0 -14 2 -18h-157zM281 299q0 -73 52 -111
t140 -38q120 0 191.5 65t78.5 186v58q-94 -4 -235 -4q-106 0 -166.5 -42t-60.5 -114z" />
    <glyph glyph-name="adieresis" unicode="&#xe4;" horiz-adv-x="1064" 
d="M92 289q-4 82 33 154t106 116q88 57 275 57h170q71 0 65 66q-7 75 -64 111t-149 36q-176 0 -258 -145l-155 86q139 244 436 244q170 0 282.5 -100.5t112.5 -268.5v-653h-203v100q-52 -56 -123.5 -87.5t-152.5 -31.5q-162 0 -268 86q-104 88 -107 230zM197 1323
q0 62 43 104.5t106 42.5q60 0 103 -43.5t43 -103.5t-43 -102.5t-103 -42.5q-63 0 -106 42.5t-43 102.5zM281 299q0 -73 52 -111t140 -38q120 0 191.5 65t78.5 186v58q-94 -4 -235 -4q-106 0 -166.5 -42t-60.5 -114zM610 1323q0 61 44 104t106 43q60 0 103.5 -43.5
t43.5 -103.5t-43.5 -102.5t-103.5 -42.5q-62 0 -106 42.5t-44 102.5z" />
    <glyph glyph-name="aring" unicode="&#xe5;" horiz-adv-x="1064" 
d="M92 289q-4 82 33 154t106 116q88 57 275 57h170q71 0 65 66q-7 75 -64 111t-149 36q-176 0 -258 -145l-155 86q139 244 436 244q170 0 282.5 -100.5t112.5 -268.5v-653h-203v100q-52 -56 -123.5 -87.5t-152.5 -31.5q-162 0 -268 86q-104 88 -107 230zM281 299
q0 -73 52 -111t140 -38q120 0 191.5 65t78.5 186v58q-94 -4 -235 -4q-106 0 -166.5 -42t-60.5 -114zM299 1370q0 102 76.5 180t177.5 78t177.5 -78t76.5 -180q0 -104 -76 -180t-178 -76q-109 0 -181.5 73.5t-72.5 182.5zM438 1374q0 -51 33 -85t82 -34t82 34t33 85
q0 48 -33 80.5t-82 32.5t-82 -32.5t-33 -80.5z" />
    <glyph glyph-name="ae" unicode="&#xe6;" horiz-adv-x="1800" 
d="M82 281q0 166 135 254q49 34 122 46.5t202 14.5h106q46 0 61.5 20.5t10.5 69.5q-10 66 -64.5 103.5t-134.5 37.5q-90 0 -159.5 -38.5t-104.5 -110.5l-158 80q137 260 430 260q106 0 195 -43t143 -121q70 79 164 123.5t197 44.5q151 0 270 -77.5t176 -211.5
q26 -66 35.5 -129.5t7.5 -167.5h-784q20 -120 101 -191t194 -71q91 0 161 41t101 111l178 -70q-51 -127 -170.5 -201.5t-269.5 -74.5q-166 0 -299 108v-90h-68h-139v72q-107 -99 -266 -99q-154 0 -263.5 88t-109.5 222zM270 301q0 -72 53 -110.5t136 -38.5q117 0 185.5 72.5
t76.5 201.5v12q-94 -4 -248 -4q-203 0 -203 -133zM940 592h580q-17 106 -96.5 170.5t-194.5 64.5q-103 0 -183 -65.5t-106 -169.5z" />
    <glyph glyph-name="ccedilla" unicode="&#xe7;" horiz-adv-x="1091" 
d="M74 487q-2 103 39.5 200.5t110.5 169t163.5 113.5t192.5 40q158 0 281.5 -83t170.5 -220l-182 -66q-32 85 -100 133.5t-170 48.5q-136 0 -220 -96q-81 -93 -81 -240q0 -144 81 -237q82 -94 220 -94q95 0 162.5 44t95.5 113l178 -69q-44 -113 -147 -185t-236 -84l-31 -38
h66q61 0 97 -43t36 -103q0 -57 -37.5 -101t-91.5 -44h-211v106h178q20 0 31.5 12t11.5 31q0 35 -43 35h-178v109l33 43q-180 31 -300 174t-120 331z" />
    <glyph glyph-name="egrave" unicode="&#xe8;" horiz-adv-x="1132" 
d="M74 496q-3 138 65 259.5t183 192.5t245 68q153 0 275 -81t176 -218q41 -98 41 -228l-2 -79h-778q26 -105 106 -172.5t182 -67.5q91 0 160.5 40.5t99.5 108.5l181 -67q-51 -128 -170 -203.5t-271 -75.5q-129 -3 -244.5 68.5t-183.5 194t-65 260.5zM272 1501h228l176 -342
h-217zM274 567h586q-5 33 -22 73t-39 65q-35 55 -96.5 86.5t-135.5 31.5q-104 0 -187 -72.5t-106 -183.5z" />
    <glyph glyph-name="eacute" unicode="&#xe9;" horiz-adv-x="1132" 
d="M74 496q-3 138 65 259.5t183 192.5t245 68q153 0 275 -81t176 -218q41 -98 41 -228l-2 -79h-778q26 -105 106 -172.5t182 -67.5q91 0 160.5 40.5t99.5 108.5l181 -67q-51 -128 -170 -203.5t-271 -75.5q-129 -3 -244.5 68.5t-183.5 194t-65 260.5zM274 567h586
q-5 33 -22 73t-39 65q-35 55 -96.5 86.5t-135.5 31.5q-104 0 -187 -72.5t-106 -183.5zM461 1159l176 342h235l-188 -342h-223z" />
    <glyph glyph-name="ecircumflex" unicode="&#xea;" horiz-adv-x="1132" 
d="M74 496q-3 138 65 259.5t183 192.5t245 68q153 0 275 -81t176 -218q41 -98 41 -228l-2 -79h-778q26 -105 106 -172.5t182 -67.5q91 0 160.5 40.5t99.5 108.5l181 -67q-51 -128 -170 -203.5t-271 -75.5q-129 -3 -244.5 68.5t-183.5 194t-65 260.5zM270 1159l174 342h201
h47l176 -342h-190l-109 201l-110 -201h-189zM274 567h586q-5 33 -22 73t-39 65q-35 55 -96.5 86.5t-135.5 31.5q-104 0 -187 -72.5t-106 -183.5z" />
    <glyph glyph-name="edieresis" unicode="&#xeb;" horiz-adv-x="1132" 
d="M74 496q-3 138 65 259.5t183 192.5t245 68q153 0 275 -81t176 -218q41 -98 41 -228l-2 -79h-778q26 -105 106 -172.5t182 -67.5q91 0 160.5 40.5t99.5 108.5l181 -67q-51 -128 -170 -203.5t-271 -75.5q-129 -3 -244.5 68.5t-183.5 194t-65 260.5zM211 1288q0 62 43 105
t106 43q60 0 103 -44t43 -104t-43 -102.5t-103 -42.5q-63 0 -106 42.5t-43 102.5zM274 567h586q-5 33 -22 73t-39 65q-35 55 -96.5 86.5t-135.5 31.5q-104 0 -187 -72.5t-106 -183.5zM625 1288q0 61 43.5 104.5t105.5 43.5q60 0 104 -44t44 -104t-44 -102.5t-104 -42.5
q-62 0 -105.5 42.5t-43.5 102.5z" />
    <glyph glyph-name="igrave" unicode="&#xec;" horiz-adv-x="452" 
d="M-49 1522h227l176 -340h-217zM152 0v1006h204v-1006h-204z" />
    <glyph glyph-name="iacute" unicode="&#xed;" horiz-adv-x="452" 
d="M96 0v1006h207v-1006h-207zM100 1171l176 342h236l-188 -342h-224z" />
    <glyph glyph-name="icircumflex" unicode="&#xee;" horiz-adv-x="696" 
d="M47 1161l176 340h201h47l174 -340h-188l-111 201l-110 -201h-189zM246 0v1006h207v-1006h-207z" />
    <glyph glyph-name="idieresis" unicode="&#xef;" horiz-adv-x="718" 
d="M-2 1303q0 61 43 104t104 43q60 0 104 -43.5t44 -103.5t-44 -103t-104 -43q-61 0 -104 43t-43 103zM258 0v995h205v-995h-205zM412 1303q0 61 43 104t104 43q60 0 104 -43.5t44 -103.5t-44 -103t-104 -43q-61 0 -104 43t-43 103z" />
    <glyph glyph-name="eth" unicode="&#xf0;" horiz-adv-x="1280" 
d="M84 453q-12 240 122.5 410t364.5 198q62 4 66 4q133 0 252 -61q-63 116 -166 229l-141 -125l-107 119l131 114q-81 66 -172 115l103 143q114 -54 213 -131l135 119l102 -121l-119 -104q165 -168 251 -393t79 -477q3 -103 -34 -203.5t-102.5 -179t-158.5 -131t-196 -62.5
q-62 -4 -66 -4q-105 -2 -206.5 41t-178.5 115.5t-124 174t-48 210.5zM272 475h2q0 -155 107 -263t260 -108q150 0 257 105.5t110 261.5q-1 182 -103.5 290.5t-265.5 108.5q-37 0 -47 -2q-141 -12 -232 -125.5t-88 -267.5z" />
    <glyph glyph-name="ntilde" unicode="&#xf1;" horiz-adv-x="1243" 
d="M152 0l2 983h198v-131q57 79 140 121.5t180 42.5q188 -3 311 -117q125 -113 125 -371v-528h-203v518q0 156 -69 233.5t-191 77.5q-121 0 -203.5 -83.5t-89.5 -223.5v-522h-200zM274 1276q-9 101 53 176.5t156 75.5q137 0 211 -129q31 -43 51.5 -59.5t45.5 -16.5
q23 0 37 17t14 44t-8 46h165q2 -6 2 -33q0 -98 -61 -167t-149 -69q-68 0 -125 35.5t-95 101.5q-27 42 -43 55t-45 13q-23 0 -38 -20.5t-15 -51.5q0 -14 2 -18h-158z" />
    <glyph glyph-name="ograve" unicode="&#xf2;" horiz-adv-x="1140" 
d="M74 492q-3 140 63.5 261.5t183 192.5t250.5 68q136 0 250 -69.5t180 -190t66 -262.5t-66 -261.5t-180 -188.5t-250 -69q-131 -3 -247.5 69t-184.5 193t-65 257zM279 489q0 -135 82 -229t210 -94q132 0 211.5 90t79.5 233q0 142 -81 235t-210 93q-134 0 -213 -94t-79 -234
zM285 1499h227l176 -342h-217z" />
    <glyph glyph-name="oacute" unicode="&#xf3;" horiz-adv-x="1140" 
d="M74 492q-3 140 63.5 261.5t183 192.5t250.5 68q136 0 250 -69.5t180 -190t66 -262.5t-66 -261.5t-180 -188.5t-250 -69q-131 -3 -247.5 69t-184.5 193t-65 257zM279 489q0 -135 82 -229t210 -94q132 0 211.5 90t79.5 233q0 142 -81 235t-210 93q-134 0 -213 -94t-79 -234
zM473 1157l176 342h236l-189 -342h-223z" />
    <glyph glyph-name="ocircumflex" unicode="&#xf4;" horiz-adv-x="1140" 
d="M74 492q-3 140 63.5 261.5t183 192.5t250.5 68q136 0 250 -69.5t180 -190t66 -262.5t-66 -261.5t-180 -188.5t-250 -69q-131 -3 -247.5 69t-184.5 193t-65 257zM279 489q0 -135 82 -229t210 -94q132 0 211.5 90t79.5 233q0 142 -81 235t-210 93q-134 0 -213 -94t-79 -234
zM283 1157l174 342h200h48l176 -342h-191l-108 201l-111 -201h-188z" />
    <glyph glyph-name="otilde" unicode="&#xf5;" horiz-adv-x="1140" 
d="M74 492q-3 140 63.5 261.5t183 192.5t250.5 68q136 0 250 -69.5t180 -190t66 -262.5t-66 -261.5t-180 -188.5t-250 -69q-131 -3 -247.5 69t-184.5 193t-65 257zM223 1274q-9 101 53 176.5t156 75.5q138 0 211 -129q31 -44 51.5 -60t44.5 -16q23 0 37.5 17.5t14.5 43.5
q0 24 -9 45h166q2 -6 2 -32q0 -98 -61.5 -167t-149.5 -69q-67 0 -124 35.5t-95 101.5q-27 42 -43 55t-45 13q-23 0 -38 -20.5t-15 -51.5q0 -14 2 -18h-158zM279 489q0 -135 82 -229t210 -94q132 0 211.5 90t79.5 233q0 142 -81 235t-210 93q-134 0 -213 -94t-79 -234z" />
    <glyph glyph-name="odieresis" unicode="&#xf6;" horiz-adv-x="1140" 
d="M74 492q-3 140 63.5 261.5t183 192.5t250.5 68q136 0 250 -69.5t180 -190t66 -262.5t-66 -261.5t-180 -188.5t-250 -69q-131 -3 -247.5 69t-184.5 193t-65 257zM225 1323q0 62 43.5 104.5t106.5 42.5q60 0 102.5 -43.5t42.5 -103.5t-42.5 -102.5t-102.5 -42.5
q-63 0 -106.5 42.5t-43.5 102.5zM279 489q0 -135 82 -229t210 -94q132 0 211.5 90t79.5 233q0 142 -81 235t-210 93q-134 0 -213 -94t-79 -234zM639 1323q0 61 43.5 104t105.5 43q60 0 104 -43.5t44 -103.5t-44 -102.5t-104 -42.5q-62 0 -105.5 42.5t-43.5 102.5z" />
    <glyph glyph-name="divide" unicode="&#xf7;" horiz-adv-x="962" 
d="M96 416v168h770v-168h-770zM342 111q0 57 41 98t98 41t98.5 -41t41.5 -98q0 -56 -41.5 -97t-98.5 -41t-98 41t-41 97zM342 872q0 57 41 98.5t98 41.5t98.5 -41.5t41.5 -98.5q0 -56 -41.5 -96.5t-98.5 -40.5t-98 40.5t-41 96.5z" />
    <glyph glyph-name="oslash" unicode="&#xf8;" horiz-adv-x="1148" 
d="M80 487q-3 140 63.5 262t182.5 193.5t249 69.5q110 0 211 -49l13 20h186l-70 -111q74 -74 115 -174t41 -211q0 -142 -66 -261.5t-180 -188t-250 -68.5q-108 0 -204 47l-13 -18h-194l72 113q-74 73 -115 170.5t-41 205.5zM283 485q0 -118 63 -204l332 516q-53 16 -103 16
q-129 0 -210.5 -93t-81.5 -235zM475 180q53 -16 100 -16q132 0 211.5 89t79.5 232q0 125 -61 213z" />
    <glyph glyph-name="ugrave" unicode="&#xf9;" horiz-adv-x="1222" 
d="M141 461v522h203v-512q0 -152 69.5 -232.5t188.5 -80.5q131 0 204 91.5t73 268.5v465h202v-983h-202v119q-100 -146 -297 -146q-441 0 -441 488zM317 1493h228l176 -342h-217z" />
    <glyph glyph-name="uacute" unicode="&#xfa;" horiz-adv-x="1222" 
d="M141 461v522h203v-512q0 -152 69.5 -232.5t188.5 -80.5q131 0 204 91.5t73 268.5v465h202v-983h-202v119q-100 -146 -297 -146q-441 0 -441 488zM504 1151l176 342h235l-188 -342h-223z" />
    <glyph glyph-name="ucircumflex" unicode="&#xfb;" horiz-adv-x="1222" 
d="M141 461v522h203v-512q0 -152 69.5 -232.5t188.5 -80.5q131 0 204 91.5t73 268.5v465h202v-983h-202v119q-100 -146 -297 -146q-441 0 -441 488zM313 1151l174 342h201h47l176 -342h-190l-109 201l-110 -201h-189z" />
    <glyph glyph-name="udieresis" unicode="&#xfc;" horiz-adv-x="1222" 
d="M141 461v522h203v-512q0 -152 69.5 -232.5t188.5 -80.5q131 0 204 91.5t73 268.5v465h202v-983h-202v119q-100 -146 -297 -146q-441 0 -441 488zM258 1317q0 62 43.5 104.5t106.5 42.5q60 0 102.5 -43.5t42.5 -103.5t-42.5 -103t-102.5 -43q-63 0 -106.5 43t-43.5 103z
M672 1317q0 61 43.5 104t105.5 43q60 0 104 -43.5t44 -103.5t-44 -103t-104 -43q-61 0 -105 43t-44 103z" />
    <glyph glyph-name="yacute" unicode="&#xfd;" horiz-adv-x="1091" 
d="M16 983h220l325 -729l293 729h217l-579 -1442h-218l187 465zM436 1124l176 342h236l-189 -342h-223z" />
    <glyph glyph-name="thorn" unicode="&#xfe;" horiz-adv-x="1241" 
d="M152 -532v1986h217v-553q116 141 305 141q219 0 353.5 -152t137.5 -398v-5v-6q-3 -244 -139 -396.5t-356 -152.5q-175 0 -301 142v-606h-217zM369 434q9 -139 94 -227q87 -84 199 -84q132 0 217 100t86 264q-1 164 -86 264.5t-217 100.5q-118 0 -200.5 -84t-92.5 -223
v-111z" />
    <glyph glyph-name="ydieresis" unicode="&#xff;" horiz-adv-x="1091" 
d="M16 983h220l325 -729l293 729h217l-579 -1442h-218l187 465zM190 1290q0 62 43.5 105t106.5 43q60 0 102.5 -44t42.5 -104t-42.5 -102.5t-102.5 -42.5q-63 0 -106.5 42.5t-43.5 102.5zM604 1290q0 61 44 104.5t106 43.5q60 0 103.5 -44t43.5 -104t-43.5 -102.5
t-103.5 -42.5q-62 0 -106 42.5t-44 102.5z" />
    <glyph glyph-name="OE" unicode="&#x152;" horiz-adv-x="2355" 
d="M119 725q-2 158 52.5 299.5t149.5 242.5t228 159.5t282 56.5q150 0 282 -56t230 -157v184h207l686 -2v-207l-686 2v-413h621l-2 -201h-619v-426l688 -2l-2 -205l-686 2v-2h-207v176q-98 -101 -228.5 -156t-280.5 -55q-194 -4 -360.5 98t-262.5 279t-92 383zM346 725
q0 -235 138 -388t350 -153q221 0 355 149.5t134 391.5t-136 391.5t-356 149.5q-214 0 -349.5 -151.5t-135.5 -389.5z" />
    <glyph glyph-name="oe" unicode="&#x153;" horiz-adv-x="1935" 
d="M82 487q-3 140 64 262t183.5 193.5t250.5 69.5q120 0 222.5 -54.5t172.5 -152.5q70 95 172 149t217 54q152 0 274 -82t174 -219q41 -98 41 -228v-80h-780q26 -106 107.5 -173.5t183.5 -67.5q90 0 159.5 41.5t100.5 111.5l180 -69q-54 -128 -172.5 -203.5t-267.5 -75.5
q-115 0 -218 55t-173 150q-70 -94 -172 -146.5t-221 -52.5q-98 -2 -191 40t-160.5 113t-107.5 167.5t-39 197.5zM287 485q0 -133 82.5 -227t210.5 -94q132 0 211 89t79 232t-80.5 235.5t-209.5 92.5q-132 0 -212.5 -92.5t-80.5 -235.5zM1071 557h584q-2 35 -21 82
q-31 80 -104 127t-166 47q-105 0 -187.5 -72.5t-105.5 -183.5z" />
    <glyph glyph-name="Ydieresis" unicode="&#x178;" horiz-adv-x="1249" 
d="M20 1454h244l359 -655v2l362 653h244l-502 -852v-602h-205v598zM270 1759q0 62 43.5 105t106.5 43q60 0 102.5 -44t42.5 -104t-42.5 -102.5t-102.5 -42.5q-63 0 -106.5 42.5t-43.5 102.5zM684 1759q0 61 44 104.5t106 43.5q60 0 103.5 -44t43.5 -104t-43.5 -102.5
t-103.5 -42.5q-62 0 -106 42.5t-44 102.5z" />
    <glyph glyph-name="circumflex" unicode="&#x2c6;" horiz-adv-x="694" 
d="M49 1595l174 342h201h47l176 -342h-190l-109 201l-110 -201h-189z" />
    <glyph glyph-name="tilde" unicode="&#x2dc;" horiz-adv-x="811" 
d="M49 1686q-9 101 53 176t156 75q138 0 211 -129q31 -43 51 -59t45 -16q23 0 37 17t14 44q0 26 -8 45h166q2 -6 2 -33q0 -98 -61.5 -166.5t-149.5 -68.5q-67 0 -124 35.5t-95 101.5q-27 42 -43 55t-45 13q-23 0 -38 -20.5t-15 -51.5q0 -14 2 -18h-158z" />
    <glyph glyph-name="uni2000" unicode="&#x2000;" horiz-adv-x="1033" 
 />
    <glyph glyph-name="uni2001" unicode="&#x2001;" horiz-adv-x="2066" 
 />
    <glyph glyph-name="uni2002" unicode="&#x2002;" horiz-adv-x="1033" 
 />
    <glyph glyph-name="uni2003" unicode="&#x2003;" horiz-adv-x="2066" 
 />
    <glyph glyph-name="uni2004" unicode="&#x2004;" horiz-adv-x="688" 
 />
    <glyph glyph-name="uni2005" unicode="&#x2005;" horiz-adv-x="516" 
 />
    <glyph glyph-name="uni2006" unicode="&#x2006;" horiz-adv-x="344" 
 />
    <glyph glyph-name="uni2007" unicode="&#x2007;" horiz-adv-x="344" 
 />
    <glyph glyph-name="uni2008" unicode="&#x2008;" horiz-adv-x="258" 
 />
    <glyph glyph-name="uni2009" unicode="&#x2009;" horiz-adv-x="413" 
 />
    <glyph glyph-name="uni200A" unicode="&#x200a;" horiz-adv-x="114" 
 />
    <glyph glyph-name="uni2010" unicode="&#x2010;" horiz-adv-x="942" 
d="M86 436v207h770v-207h-770z" />
    <glyph glyph-name="uni2011" unicode="&#x2011;" horiz-adv-x="942" 
d="M86 436v207h770v-207h-770z" />
    <glyph glyph-name="figuredash" unicode="&#x2012;" horiz-adv-x="942" 
d="M86 436v207h770v-207h-770z" />
    <glyph glyph-name="endash" unicode="&#x2013;" horiz-adv-x="1855" 
d="M133 436v207h1589v-207h-1589z" />
    <glyph glyph-name="emdash" unicode="&#x2014;" horiz-adv-x="2322" 
d="M160 436v207h2001v-207h-2001z" />
    <glyph glyph-name="quoteleft" unicode="&#x2018;" horiz-adv-x="417" 
d="M70 1122q0 29 16 66l107 217h73l-30 -148q50 -11 81 -48.5t31 -86.5q0 -57 -41 -98t-98 -41t-98 41t-41 98z" />
    <glyph glyph-name="quoteright" unicode="&#x2019;" horiz-adv-x="417" 
d="M70 1225q0 59 40.5 99t98.5 40q57 0 98 -41t41 -98q0 -36 -18 -66l-105 -217h-73l28 150q-47 7 -78.5 46t-31.5 87z" />
    <glyph glyph-name="quotesinglbase" unicode="&#x201a;" horiz-adv-x="430" 
d="M147 137q0 57 41.5 98t98.5 41t98 -41t41 -98q0 -38 -18 -65l-105 -217h-74l31 147q-50 11 -81.5 48.5t-31.5 86.5z" />
    <glyph glyph-name="quotedblleft" unicode="&#x201c;" horiz-adv-x="821" 
d="M109 1122q0 39 18 66l106 217h72l-29 -148q50 -11 81.5 -48.5t31.5 -86.5q0 -57 -42 -98t-99 -41q-56 0 -97.5 41t-41.5 98zM432 1122q0 30 19 66l106 217h74l-31 -148q50 -11 81.5 -48.5t31.5 -86.5q0 -57 -42.5 -98t-99.5 -41q-56 0 -97.5 41t-41.5 98z" />
    <glyph glyph-name="quotedblright" unicode="&#x201d;" horiz-adv-x="821" 
d="M109 1225q0 57 40.5 98t100.5 41q56 0 97.5 -41t41.5 -98q0 -29 -18 -66l-107 -217h-71l28 150q-48 11 -80 48.5t-32 84.5zM432 1225q0 57 41 98t100 41q57 0 98.5 -41t41.5 -98q0 -34 -19 -66l-104 -217h-74l29 150q-48 11 -80.5 48.5t-32.5 84.5z" />
    <glyph glyph-name="quotedblbase" unicode="&#x201e;" horiz-adv-x="710" 
d="M43 137q0 57 41 98t98 41t98.5 -41t41.5 -98q0 -37 -19 -65l-104 -217h-74l29 147q-48 11 -79.5 48.5t-31.5 86.5zM367 137q0 57 42 98t99 41q56 0 97.5 -41t41.5 -98q0 -31 -18 -65l-107 -217h-73l30 147q-50 11 -81 48.5t-31 86.5z" />
    <glyph glyph-name="bullet" unicode="&#x2022;" horiz-adv-x="792" 
d="M106 522q0 118 86.5 203.5t204.5 85.5q116 0 202.5 -85.5t86.5 -203.5q0 -115 -86.5 -199.5t-202.5 -84.5q-117 0 -204 84.5t-87 199.5z" />
    <glyph glyph-name="ellipsis" unicode="&#x2026;" horiz-adv-x="1560" 
d="M178 109q0 59 40.5 99t98.5 40q57 0 98.5 -41t41.5 -98q0 -56 -41.5 -97t-98.5 -41t-98 41t-41 97zM641 109q0 59 40.5 99t98.5 40q57 0 98.5 -41t41.5 -98q0 -56 -41.5 -97t-98.5 -41t-98 41t-41 97zM1104 109q0 59 40.5 99t98.5 40q57 0 98 -41t41 -98q0 -56 -41 -97
t-98 -41t-98 41t-41 97z" />
    <glyph glyph-name="uni202F" unicode="&#x202f;" horiz-adv-x="413" 
 />
    <glyph glyph-name="guilsinglleft" unicode="&#x2039;" horiz-adv-x="684" 
d="M82 492l332 491h221l-332 -491l332 -492h-221z" />
    <glyph glyph-name="guilsinglright" unicode="&#x203a;" horiz-adv-x="684" 
d="M47 0l332 492l-332 491h223l332 -491l-332 -492h-223z" />
    <glyph glyph-name="uni205F" unicode="&#x205f;" horiz-adv-x="516" 
 />
    <glyph glyph-name="Euro" unicode="&#x20ac;" horiz-adv-x="1542" 
d="M133 440v197h186q-4 70 -4 80q0 44 7 98h-189v197h238q82 211 264 340t409 129q198 0 388 -105l-95 -174q-150 82 -293 82q-142 0 -263.5 -73.5t-190.5 -198.5h491l-51 -197h-508q-8 -36 -8 -98q0 -39 6 -80h467l-47 -197h-356q68 -128 191.5 -204t268.5 -76
q182 0 322 108l125 -153q-91 -72 -210 -113t-237 -41q-227 0 -413.5 134t-263.5 345h-234z" />
    <glyph glyph-name="trademark" unicode="&#x2122;" horiz-adv-x="1198" 
d="M55 1352v102h416v-102h-162v-430h-98v430h-156zM535 922v532h96l176 -416l180 416h96v-532h-96v303l-129 -303h-100l-127 301v-301h-96z" />
    <glyph glyph-name="uni25FC" unicode="&#x25fc;" horiz-adv-x="983" 
d="M0 0v983h983v-983h-983z" />
    <glyph glyph-name="uniFB03" unicode="&#xfb03;" horiz-adv-x="1638" 
d="M33 807v176h125v168q0 152 90 244t233 92q60 0 109 -14l-43 -193q-27 6 -51 6q-62 0 -96.5 -39t-34.5 -112v-152h346v168q0 152 89.5 244t231.5 92q60 0 109 -14l-41 -193q-27 6 -53 6q-62 0 -95.5 -39t-33.5 -112v-152h559v-176v-807h-205v807h-354v-807h-207v807h-346
l2 -807h-209v807h-125zM1235 1339q0 60 42.5 103t102.5 43q57 0 99.5 -43t42.5 -103q0 -56 -42.5 -99.5t-99.5 -43.5q-59 0 -102 43.5t-43 99.5z" />
    <glyph glyph-name="uniFB04" unicode="&#xfb04;" horiz-adv-x="1775" 
d="M33 807v176h125v162q0 152 90 244t233 92q57 0 109 -15l-43 -192q-27 6 -51 6q-62 0 -96.5 -39.5t-34.5 -112.5v-145h340v162q0 152 89.5 244t231.5 92q56 0 109 -15l-41 -192q-27 6 -52 6q-62 0 -96.5 -39.5t-34.5 -112.5v-145h375v471h207l2 -1169q0 -55 20.5 -75
t69.5 -20l109 -2v-188l-201 2q-103 0 -155 64.5t-52 187.5v553h-375l2 -807h-208v807h-340l2 -807h-209v807h-125z" />
    </font>
</defs>
</svg>
