<?xml version="1.0" standalone="no"?>
<!DOCTYPE svg PUBLIC "-//W3C//DTD SVG 1.1//EN" "http://www.w3.org/Graphics/SVG/1.1/DTD/svg11.dtd" >
<svg xmlns="http://www.w3.org/2000/svg" xmlns:xlink="http://www.w3.org/1999/xlink" version="1.1">
<metadata>
Created by FontForge 20170731 at Tue Jul 11 08:45:09 2017
 By Aleksey,,,
Copyright (c) 2016 by Deni Anggara. All rights reserved.
</metadata>
<defs>
<font id="NeutrifPro-Bold" horiz-adv-x="1087" >
  <font-face 
    font-family="Neutrif Pro Bold"
    font-weight="700"
    font-stretch="normal"
    units-per-em="2048"
    panose-1="0 0 8 0 0 0 0 0 0 0"
    ascent="1540"
    descent="-508"
    x-height="983"
    cap-height="1454"
    bbox="-102 -532 2255 2114"
    underline-thickness="102"
    underline-position="-816"
    unicode-range="U+0020-FB04"
  />
<missing-glyph horiz-adv-x="748" 
d="M68 0v1365h544v-1365h-544zM136 68h408v1229h-408v-1229z" />
    <glyph glyph-name="uniFB01" unicode="fi" horiz-adv-x="1179" 
d="M29 764v219h129v137q0 163 104 265t262 102q48 0 121 -17l-53 -249q-24 6 -45 6q-54 0 -87.5 -35.5t-33.5 -95.5v-113h600v-219v-764h-266v764h-334q2 -211 2 -764h-268q0 549 -2 764h-129zM731 1317q0 68 50.5 118t119.5 50q66 0 115 -50t49 -118q0 -66 -49 -117
t-115 -51q-67 0 -118.5 51t-51.5 117z" />
    <glyph glyph-name="uniFB02" unicode="fl" horiz-adv-x="1323" 
d="M29 764v219h129v137q0 163 104 265t262 102q48 0 121 -17l-53 -249q-24 6 -45 6q-54 0 -87.5 -35.5t-33.5 -95.5v-113h358v471h269l2 -1137q0 -47 20 -60t74 -13l94 -2v-242l-239 2q-108 0 -164 72t-56 202v488h-358q2 -211 2 -764h-268q0 549 -2 764h-129z" />
    <glyph glyph-name=".notdef" horiz-adv-x="748" 
d="M68 0v1365h544v-1365h-544zM136 68h408v1229h-408v-1229z" />
    <glyph glyph-name="glyph1" horiz-adv-x="0" 
 />
    <glyph glyph-name="glyph2" horiz-adv-x="682" 
 />
    <glyph glyph-name="space" unicode=" " horiz-adv-x="512" 
 />
    <glyph glyph-name="exclam" unicode="!" horiz-adv-x="610" 
d="M143 905v549h322v-549l-35 -553h-252zM158 121q0 63 46 108t109 45q62 0 108 -45t46 -108q0 -61 -46 -106.5t-108 -45.5q-63 0 -109 45t-46 107z" />
    <glyph glyph-name="quotedbl" unicode="&#x22;" horiz-adv-x="835" 
d="M125 1397q0 58 34 91.5t85 33.5q53 0 89 -32.5t36 -92.5l-2 -25l-45 -389h-148l-47 389zM465 1397q0 58 34 91.5t85 33.5q53 0 89 -32.5t36 -92.5l-2 -25l-45 -389h-148l-47 389z" />
    <glyph glyph-name="numbersign" unicode="#" horiz-adv-x="1619" 
d="M164 365l51 268h186l39 190h-209l52 269h209l71 362h266l-71 -362h229l72 362h266l-72 -362h203l-51 -269h-203l-39 -190h226l-52 -268h-225l-72 -365h-268l72 365h-228l-71 -365h-266l71 365h-186zM668 633h229l37 190h-227z" />
    <glyph glyph-name="dollar" unicode="$" horiz-adv-x="1253" 
d="M115 379l270 39q11 -74 88 -124t186 -50q94 0 151.5 51t57.5 125q0 56 -38.5 99t-110.5 61q-40 6 -219 45q-155 32 -243.5 142t-88.5 269q0 160 98 279q97 118 252 153v152h230v-145q154 -25 259.5 -117t143.5 -238l-266 -69q-20 80 -84.5 123t-163.5 43
q-85 0 -142 -55.5t-57 -127.5q0 -53 31.5 -91t89.5 -50q28 -7 55.5 -13.5t53.5 -11.5t37 -8q11 -1 45 -8q185 -35 287 -149t102 -285q0 -168 -109 -289q-106 -118 -282 -145v-150h-230v158q-164 35 -274 139q-108 105 -129 248z" />
    <glyph glyph-name="percent" unicode="%" horiz-adv-x="2058" 
d="M123 1096q0 179 90.5 286.5t239.5 106.5q149 1 239 -106.5t90 -286.5t-90 -285.5t-239 -105.5q-149 -2 -239.5 105.5t-90.5 285.5zM303 1096q0 -98 40.5 -153.5t109.5 -57.5q69 2 108 57.5t39 153.5q0 91 -32.5 145.5t-92.5 61.5q-6 2 -22 2q-17 0 -23 -2
q-60 -8 -93.5 -62t-33.5 -145zM362 0l1108 1454h267l-1108 -1454h-267zM1317 358q0 179 90.5 287t239.5 107q149 1 239 -107t90 -287t-90 -285.5t-239 -105.5q-149 -2 -239.5 105.5t-90.5 285.5zM1497 358q0 -98 40.5 -153.5t109.5 -57.5q69 2 108 57.5t39 153.5
q0 91 -32.5 145.5t-92.5 61.5q-6 2 -22 2q-17 0 -23 -2q-60 -8 -93.5 -62t-33.5 -145z" />
    <glyph glyph-name="ampersand" unicode="&#x26;" horiz-adv-x="1560" 
d="M137 469q0 117 56 223q76 145 264 238q-86 115 -92 211q-9 146 88 252t245 106q132 0 228 -88.5t96 -216.5q0 -94 -48 -169t-151 -151q26 -31 160 -206l86 -113l12 66q6 38 6 79q0 35 -2 45l246 25q2 -12 2 -57q0 -53 -6 -99q-18 -150 -86 -274l45 -49q27 -30 56 -40.5
t85 -10.5h105v-240h-154q-86 -4 -142.5 19.5t-113.5 86.5l-37 41q-192 -159 -442 -159q-123 0 -228 49.5t-173 138.5q-105 126 -105 293zM385 467q0 -54 29 -117q33 -62 92.5 -97.5t136.5 -35.5q163 0 289 113q-48 59 -117.5 151t-93.5 121l-109 141q-84 -46 -131 -82.5
t-69 -80.5q-27 -52 -27 -113zM610 1169q0 -31 29 -75q13 -23 43 -52q30 24 35 29q64 54 61 107q-4 36 -27.5 55.5t-56.5 19.5q-36 0 -60 -23t-24 -61z" />
    <glyph glyph-name="quotesingle" unicode="'" horiz-adv-x="559" 
d="M125 1251q0 63 46.5 108.5t109.5 45.5q62 0 107.5 -45.5t45.5 -108.5q0 -37 -20 -73l-121 -236h-78l33 162q-54 10 -88.5 51.5t-34.5 95.5z" />
    <glyph glyph-name="parenleft" unicode="(" horiz-adv-x="655" 
d="M113 684q0 281 100 522q101 247 283 367l149 -152q-76 -48 -134 -174t-85.5 -274t-26.5 -289q-1 -141 26.5 -289t85.5 -274t134 -174l-149 -152q-181 120 -283 365q-100 244 -100 524z" />
    <glyph glyph-name="parenright" unicode=")" horiz-adv-x="655" 
d="M10 -53q76 48 134 174.5t85 274t27 288.5t-27 288.5t-85 274t-134 174.5l150 152q178 -118 280 -367q103 -248 103 -522q0 -273 -103 -524q-103 -248 -280 -365z" />
    <glyph glyph-name="asterisk" unicode="*" horiz-adv-x="604" 
d="M51 1251l31 103l170 -54v175h104v-175l168 54l29 -103l-166 -53l107 -156l-84 -59l-107 154l-104 -150l-84 57l106 154z" />
    <glyph glyph-name="plus" unicode="+" horiz-adv-x="1189" 
d="M82 485v246h391v389h246v-389h389v-246h-389v-391h-246v391h-391z" />
    <glyph glyph-name="comma" unicode="," horiz-adv-x="559" 
d="M125 152q0 63 46.5 108t109.5 45q62 0 107.5 -45t45.5 -108q0 -38 -20 -74l-121 -236h-78l33 162q-54 10 -88.5 52t-34.5 96z" />
    <glyph glyph-name="hyphen" unicode="-" horiz-adv-x="935" 
d="M82 397v269h772v-269h-772z" />
    <glyph glyph-name="period" unicode="." horiz-adv-x="571" 
d="M131 121q0 63 46.5 108t109.5 45q62 0 107.5 -45t45.5 -108q0 -61 -45.5 -106.5t-107.5 -45.5q-63 0 -109.5 45.5t-46.5 106.5z" />
    <glyph glyph-name="slash" unicode="/" horiz-adv-x="835" 
d="M0 0l567 1454h269l-570 -1454h-266z" />
    <glyph glyph-name="zero" unicode="0" horiz-adv-x="1503" 
d="M102 729q0 267 111 457q85 142 222 219t313 78h4h4q163 -1 294 -68.5t216 -191.5q135 -193 135 -494q0 -276 -113 -459q-82 -141 -218.5 -217.5t-313.5 -77.5h-4h-4q-188 1 -331.5 88t-223.5 246q-91 187 -91 420zM395 729q0 -163 56 -278q44 -93 122 -143t179 -52
q185 3 280 160q74 121 74 313q0 195 -78 320q-95 148 -276 151q-178 -3 -277 -147q-80 -127 -80 -324z" />
    <glyph glyph-name="one" unicode="1" horiz-adv-x="800" 
d="M72 1067v270h202q40 0 60 23.5t20 81.5v43h273v-1485h-273v1077q-38 -10 -67 -10h-215z" />
    <glyph glyph-name="two" unicode="2" horiz-adv-x="1255" 
d="M92 0q0 161 49 268q48 105 191 205l291 199q159 111 163 119q96 81 99 188q-5 108 -67 174.5t-169 67.5q-112 -1 -174.5 -63.5t-62.5 -168.5h-269q0 217 140.5 356t361.5 142h4h4q213 -3 353.5 -145t146.5 -355v-8v-8q-4 -115 -58 -217.5t-151 -182.5l-229 -163
q-27 -19 -54.5 -38t-46 -32t-37 -25.5t-29.5 -20.5t-19 -14t-11 -8t-2 -2l602 2v-266z" />
    <glyph glyph-name="three" unicode="3" horiz-adv-x="1228" 
d="M96 471h269q5 -101 71 -165t174 -64q104 0 175 68t71 171q0 111 -70 183.5t-180 72.5q-65 0 -127 -26l-96 213l256 260l-483 2v268h901v-233l-271 -273q155 -51 247.5 -177t92.5 -290q0 -142 -69.5 -258.5t-188 -182t-258.5 -65.5q-108 -2 -205 37.5t-165 107.5t-107 160
t-37 191z" />
    <glyph glyph-name="four" unicode="4" horiz-adv-x="1296" 
d="M92 268v267l701 919h266v-922h186v-266h-186v-266h-266v266zM418 535l375 -3v500z" />
    <glyph glyph-name="five" unicode="5" horiz-adv-x="1236" 
d="M92 489h268q0 -102 72 -174q72 -69 180 -69q110 0 185 69q77 71 80 174q6 136 -69.5 213.5t-209.5 77.5q-73 0 -136.5 -36.5t-80.5 -86.5l-244 64l182 733h777v-270h-568l-59 -215q79 43 174 43q228 0 365 -146.5t137 -376.5q3 -135 -70.5 -255.5t-198 -191t-264.5 -67.5
q-106 0 -202.5 40.5t-166 109.5t-110.5 164t-41 200z" />
    <glyph glyph-name="six" unicode="6" horiz-adv-x="1331" 
d="M125 719q0 53 2 69q6 128 40 243.5t89 197.5q81 121 202 187.5t273 66.5q158 0 289.5 -62t210.5 -186l-227 -135q-49 55 -117.5 84.5t-143.5 29.5q-104 0 -190 -57q-127 -86 -164 -258q59 74 150 114t192 40q78 0 152 -22t138 -66t112 -105t76 -144.5t28 -178.5
q0 -123 -44.5 -230t-118.5 -179.5t-170 -113.5t-199 -41q-184 0 -316.5 97t-198 264t-65.5 385zM420 522q0 -142 78 -221.5t196 -79.5t197 80.5t80 226.5q0 129 -81 208t-190 79q-114 0 -194 -79t-86 -214z" />
    <glyph glyph-name="seven" unicode="7" horiz-adv-x="1083" 
d="M31 1180v274h1022v-274q-242 -181 -357 -426q-113 -241 -137 -422q-22 -187 -22 -332h-277q0 132 19 311q22 182 120 418q101 244 314 451h-682z" />
    <glyph glyph-name="eight" unicode="8" horiz-adv-x="1236" 
d="M111 399q0 177 137 299q58 48 104 68q-57 29 -104 82q-92 109 -92 246q0 88 37.5 165t109.5 132q127 92 313 92q178 0 299 -80q79 -54 122.5 -135t43.5 -172q0 -133 -94 -248q-47 -53 -104 -82q40 -21 69 -41q172 -125 172 -319q0 -181 -135 -304q-142 -127 -373 -127
q-230 0 -370 127q-132 120 -135 297zM356 436q0 -68 47 -127q79 -86 213 -86q121 0 193 66q73 61 70 160q-6 76 -70 131q-71 65 -193 65q-134 0 -204 -76q-56 -56 -56 -133zM387 1067q0 -84 64 -136t165 -52q116 0 181 65q49 49 49 119q0 42 -22 80.5t-62 62.5
q-58 37 -146 37q-108 0 -172 -55q-57 -51 -57 -121z" />
    <glyph glyph-name="nine" unicode="9" horiz-adv-x="1372" 
d="M100 922q-3 120 45.5 228.5t128 182.5t181.5 116t204 40q192 0 330.5 -105.5t202.5 -291.5q57 -162 57 -338q0 -147 -39 -284t-112 -245q-85 -122 -215.5 -188t-278.5 -66q-145 0 -271 65t-204 185l227 135q99 -114 258 -114q79 0 149.5 33t117.5 92t77 145
q-123 -129 -319 -129q-100 -2 -197.5 36.5t-174 106.5t-123 172t-44.5 224zM367 928q0 -130 85 -209.5t199 -79.5q122 0 205 79.5t84 215.5q0 134 -82 212.5t-194 78.5q-75 0 -141.5 -33t-111 -102.5t-44.5 -161.5z" />
    <glyph glyph-name="colon" unicode=":" horiz-adv-x="555" 
d="M123 121q0 63 46.5 108t109.5 45q62 0 107.5 -45t45.5 -108q0 -61 -45.5 -106.5t-107.5 -45.5q-63 0 -109.5 45.5t-46.5 106.5zM123 829q0 63 46.5 108.5t109.5 45.5q62 0 107.5 -45.5t45.5 -108.5q0 -61 -45.5 -106t-107.5 -45q-63 0 -109.5 45t-46.5 106z" />
    <glyph glyph-name="semicolon" unicode=";" horiz-adv-x="555" 
d="M123 152q0 63 46.5 108t109.5 45q62 0 107.5 -45t45.5 -108q0 -38 -20 -74l-121 -236h-78l33 162q-54 10 -88.5 52t-34.5 96zM123 829q0 63 46.5 108.5t109.5 45.5q62 0 107.5 -45.5t45.5 -108.5q0 -61 -45.5 -106t-107.5 -45q-63 0 -109.5 45t-46.5 106z" />
    <glyph glyph-name="less" unicode="&#x3c;" horiz-adv-x="860" 
d="M72 354v285l706 354v-295l-413 -200l413 -203v-295z" />
    <glyph glyph-name="equal" unicode="=" horiz-adv-x="1228" 
d="M211 137v228h772v-228h-772zM211 612v228h772v-228h-772z" />
    <glyph glyph-name="greater" unicode="&#x3e;" horiz-adv-x="870" 
d="M82 0v295l414 203l-414 200v295l706 -354v-285z" />
    <glyph glyph-name="question" unicode="?" horiz-adv-x="1175" 
d="M20 987q0 136 66 250t180 180t250 66t250 -66t180 -180t66 -250q0 -119 -43.5 -204.5t-151.5 -170.5q-28 -25 -61 -43q-81 -58 -114.5 -92.5t-37.5 -77.5v-45h-270v60q0 98 58.5 177t174.5 167l45 37q127 106 127 192q0 106 -62 165.5t-161 59.5q-87 0 -155 -67.5
t-68 -157.5h-273zM324 127q0 64 46 110t111 46q62 0 109 -46.5t47 -109.5q0 -61 -47 -107.5t-109 -46.5q-65 0 -111 46t-46 108z" />
    <glyph glyph-name="at" unicode="@" horiz-adv-x="1611" 
d="M82 729q-3 141 56 276t158.5 234.5t235.5 158.5t279 56q227 0 410 -121q185 -120 262 -336q35 -100 35 -209q0 -76 -21 -165q-36 -137 -128 -215t-206 -78q-60 0 -114.5 24t-90.5 68q-95 -80 -235 -80q-121 0 -197.5 66.5t-74.5 169.5q-3 122 92 204q74 64 250 64h122
q-4 43 -38 68.5t-82 25.5q-51 0 -93.5 -27t-62.5 -75q-43 19 -72 28q-43 21 -92 39q66 113 156 165t217 52q125 0 198.5 -81t63.5 -205l-16 -181q-2 -6 -2 -30q0 -42 24 -67.5t60 -25.5q43 0 77.5 32.5t46.5 90.5q15 71 15 117q0 112 -45 203q-60 125 -183 198.5t-276 73.5
q-103 2 -200.5 -40t-168.5 -113t-113 -167.5t-40 -197.5q-2 -103 40 -200.5t113 -168.5t168.5 -113t200.5 -40q159 0 287 90l135 -160q-191 -137 -422 -137q-141 -3 -277 57t-235.5 159.5t-159.5 235.5t-57 277zM655 614q-3 -65 82 -65q61 0 98 33t54 102h-129
q-42 0 -71 -21t-34 -49z" />
    <glyph glyph-name="A" unicode="A" horiz-adv-x="1490" 
d="M20 0l580 1454h291l579 -1454h-321l-129 344h-549l-131 -344h-320zM561 586h367l-183 483z" />
    <glyph glyph-name="B" unicode="B" horiz-adv-x="1368" 
d="M166 0v1454h268l326 -2q242 0 380 -112t138 -308q0 -185 -141 -305q157 -119 157 -311t-131 -301.5t-364 -114.5h-365h-268zM434 256h348q92 0 154.5 45.5t62.5 132.5q0 82 -60 129t-163 47h-342v-354zM434 838h326q113 0 167 49t54 135q0 77 -57.5 126.5t-163.5 49.5
h-326v-360z" />
    <glyph glyph-name="C" unicode="C" horiz-adv-x="1546" 
d="M82 727v19q0 140 56 272q60 141 159.5 243.5t235.5 163.5q130 58 267 58h13h12q274 0 420 -140q147 -141 205 -284l-272 -101q-39 106 -138.5 174t-226.5 68q-187 0 -310.5 -135t-123.5 -338q0 -201 123 -332t311 -131q129 0 235 65t156 169l271 -127
q-81 -184 -259.5 -290t-402.5 -106h-14q-137 -1 -267 57q-136 60 -235.5 162t-158.5 242q-56 134 -56 277v14z" />
    <glyph glyph-name="D" unicode="D" horiz-adv-x="1523" 
d="M166 0v1456h268h256h13q203 0 372 -91q174 -94 273 -263q96 -164 96 -363v-12v-11q0 -150 -55 -282q-57 -136 -157 -232q-102 -95 -242 -149q-138 -53 -294 -53h-6h-350h-174zM434 240h256q215 0 337 130.5t122 356.5q0 222 -123 354q-124 133 -336 133h-256v-974z" />
    <glyph glyph-name="E" unicode="E" horiz-adv-x="1200" 
d="M166 0v1454h266h651l-2 -266h-649v-322l584 -2l-2 -258l-582 2v-342l651 -2l-2 -264h-897h-18z" />
    <glyph glyph-name="F" unicode="F" horiz-adv-x="1175" 
d="M166 0v1454h266l651 -2l-2 -266l-649 2v-348l551 -2l-2 -256l-549 2v-584h-266z" />
    <glyph glyph-name="G" unicode="G" horiz-adv-x="1603" 
d="M80 721v12q0 114 34 225q37 116 105.5 211.5t158.5 168t202 111.5q103 36 210 36h17q236 0 416.5 -119t267.5 -324l-272 -94q-56 126 -166 196t-246 70q-185 0 -307.5 -141.5t-122.5 -351.5q0 -207 122.5 -334t323.5 -127q142 0 254 80t133 260h-428v248h697v-848h-267
v109q-158 -134 -389 -134h-6q-165 0 -305 57q-142 57 -236.5 157.5t-145.5 238.5q-50 132 -50 281v12z" />
    <glyph glyph-name="H" unicode="H" horiz-adv-x="1474" 
d="M166 0v1454h266v-588l610 -2v590h267v-1454h-267v606l-610 2v-608h-266z" />
    <glyph glyph-name="I" unicode="I" horiz-adv-x="598" 
d="M166 0v1454h266v-1454h-266z" />
    <glyph glyph-name="J" unicode="J" horiz-adv-x="1097" 
d="M41 412v51h266v-51q0 -74 57 -126q53 -50 114 -50h7h6q77 0 133 50q57 51 56 136v1032h266v-1048q0 -192 -126 -313q-122 -118 -327 -118h-10q-199 0 -320.5 123t-121.5 314z" />
    <glyph glyph-name="K" unicode="K" horiz-adv-x="1361" 
d="M164 -4v1458h268v-684l537 684h368l-592 -737l578 -717h-369l-389 494l-133 -166v-332h-268z" />
    <glyph glyph-name="L" unicode="L" horiz-adv-x="1130" 
d="M164 0v1454h268v-1188h647v-266h-878h-37z" />
    <glyph glyph-name="M" unicode="M" horiz-adv-x="1802" 
d="M164 0v1454h266l471 -1132l469 1132h268v-1454h-268v776l-336 -776h-266l-338 776v-776h-266z" />
    <glyph glyph-name="N" unicode="N" horiz-adv-x="1540" 
d="M164 0v1454h266l680 -1001v1001h266v-1454h-266l-680 1001v-1001h-266z" />
    <glyph glyph-name="O" unicode="O" horiz-adv-x="1607" 
d="M82 723v11q0 150 54 287q56 142 152 244.5t230 161.5q128 56 269 56h14h10q145 0 275 -57q135 -59 232.5 -160.5t153.5 -243.5q54 -137 54 -288v-11v-13q0 -202 -92 -370q-96 -174 -263 -272q-160 -94 -352 -93h-16h-14q-138 0 -266 55q-134 58 -232 158t-155 240
q-54 133 -54 280v15zM381 723q0 -207 117 -335t305 -128q197 0 310.5 123.5t113.5 339.5t-115.5 345.5t-310.5 129.5q-189 0 -304.5 -131t-115.5 -344z" />
    <glyph glyph-name="P" unicode="P" horiz-adv-x="1271" 
d="M166 0v1454h268l264 -2q248 0 383.5 -114t135.5 -332q0 -213 -129 -338t-357 -136h-297v-532h-268zM434 786h264q118 0 180 57t62 152q0 94 -60.5 148.5t-181.5 54.5h-264v-412z" />
    <glyph glyph-name="Q" unicode="Q" horiz-adv-x="1660" 
d="M82 729v16q0 147 54 282q56 142 153 243.5t233 160.5q128 56 269 56h14h10q145 0 277 -57q136 -58 234 -159t154 -243q54 -135 54 -283v-16q0 -162 -55 -302.5t-156 -244.5l166 -188h-291l-51 57q-157 -80 -342 -80h-14q-137 0 -266 57q-135 59 -233 161t-156 244
q-54 135 -54 281v15zM383 729q0 -211 118.5 -349t303.5 -138q83 0 153 24l-188 213h293l74 -84q98 128 98 334q0 217 -118.5 351t-311.5 134q-188 0 -305 -135t-117 -350z" />
    <glyph glyph-name="R" unicode="R" horiz-adv-x="1372" 
d="M166 0v1454h270l348 -2q243 -3 377 -119q62 -55 95.5 -138.5t33.5 -178.5q0 -82 -27.5 -159.5t-76.5 -131.5q-75 -78 -170 -123l272 -602h-303l-237 557h-312v-557h-270zM436 803h332q138 0 190 76q33 44 33 118q0 100 -57 148q-54 51 -166 51l-332 2v-395z" />
    <glyph glyph-name="S" unicode="S" horiz-adv-x="1210" 
d="M61 379l267 39q12 -82 96 -129q80 -45 182 -45q104 0 171 46.5t67 123.5q0 45 -31 86t-84 61q-56 19 -231 53l-54 11q-161 36 -247 140.5t-86 270.5q0 121 67.5 224.5t180.5 163t243 59.5q200 0 351.5 -106.5t183.5 -256.5l-267 -69q-20 75 -95 120.5t-165 45.5
q-80 0 -139.5 -37t-79.5 -103q-6 -21 -6 -43q0 -53 36 -91t103 -50l138 -29q50 -7 63 -10q189 -32 294 -147.5t105 -288.5q0 -103 -44 -188t-118.5 -139.5t-169 -84t-198.5 -29.5q-134 0 -251.5 45.5t-196.5 139t-85 217.5z" />
    <glyph glyph-name="T" unicode="T" horiz-adv-x="1202" 
d="M33 1186v268h1136v-268h-434v-1186h-268v1186h-434z" />
    <glyph glyph-name="U" unicode="U" horiz-adv-x="1468" 
d="M152 528v926h268v-926q0 -85 48 -153.5t119 -103.5t146 -35q121 0 218.5 82.5t97.5 209.5v926h268v-926v-10q-1 -116 -47 -218q-48 -106 -129 -179t-188 -114q-104 -40 -215 -40h-5.5h-4.5q-110 0 -214 40q-106 41 -187 114t-129 179q-46 102 -46 218v10z" />
    <glyph glyph-name="V" unicode="V" horiz-adv-x="1470" 
d="M20 1454h320l395 -1087l395 1087h320l-582 -1454h-266z" />
    <glyph glyph-name="W" unicode="W" horiz-adv-x="2279" 
d="M25 1454h319l309 -1024l326 1024h319l326 -1024l311 1024h320l-494 -1454h-268l-354 1001l-355 -1001h-266z" />
    <glyph glyph-name="X" unicode="X" horiz-adv-x="1347" 
d="M20 0l494 745l-469 709h320l309 -467l307 467h319l-466 -709l493 -745h-319l-334 504l-334 -504h-320z" />
    <glyph glyph-name="Y" unicode="Y" horiz-adv-x="1327" 
d="M20 1454h320l322 -604l325 604h320l-512 -862v-592h-267v592z" />
    <glyph glyph-name="Z" unicode="Z" horiz-adv-x="1200" 
d="M80 266l713 920l-713 -2v266l1032 4v-266l-713 -922h703v-266h-1018z" />
    <glyph glyph-name="bracketleft" unicode="[" horiz-adv-x="587" 
d="M113 -176v1810h465v-209h-238v-1392h238v-209h-465z" />
    <glyph glyph-name="backslash" unicode="\" horiz-adv-x="835" 
d="M0 1454h268l568 -1454h-267z" />
    <glyph glyph-name="bracketright" unicode="]" horiz-adv-x="587" 
d="M10 33h238v1390h-238v209h465v-1808h-465v209z" />
    <glyph glyph-name="asciicircum" unicode="^" horiz-adv-x="851" 
d="M82 983l211 471h266l211 -471h-266l-78 174l-78 -174h-266z" />
    <glyph glyph-name="underscore" unicode="_" horiz-adv-x="813" 
d="M113 -33h690v-186h-690v186z" />
    <glyph glyph-name="grave" unicode="`" horiz-adv-x="536" 
d="M0 1960h283l192 -381h-268z" />
    <glyph glyph-name="a" unicode="a" 
d="M86 297q0 85 38 157q40 74 114 121q45 28 102.5 37t167.5 11h143q27 0 42 13.5t14 39.5q-21 106 -177 106q-77 0 -133.5 -30t-97.5 -99l-197 111q78 134 190.5 192t260.5 58q176 0 297 -104t121 -279v-643h-262v78q-108 -91 -238 -91q-172 0 -278.5 88.5t-106.5 233.5z
M326 303q0 -104 163 -104q96 0 154.5 42t65.5 130v55q-41 -2 -199 -2q-89 0 -136.5 -33t-47.5 -88z" />
    <glyph glyph-name="b" unicode="b" horiz-adv-x="1282" 
d="M145 0v1454h271v-575q127 139 321 139q93 0 178 -35.5t151.5 -100.5t106 -165t39.5 -221q0 -123 -40 -224t-107.5 -164.5t-152 -98t-175.5 -34.5q-196 0 -321 131v-106h-271zM426 483q0 -129 75.5 -203.5t186.5 -74.5t187.5 75t80.5 209q0 137 -75.5 218t-188.5 81
q-111 0 -188.5 -81.5t-77.5 -223.5z" />
    <glyph glyph-name="c" unicode="c" horiz-adv-x="1097" 
d="M70 489v11q0 134 68 252q72 124 192 195q115 69 243 69h11q156 0 284 -84q127 -83 174 -223l-235 -86q-59 157 -223 157q-118 0 -184 -81t-66 -210q0 -128 65.5 -206t184.5 -78q84 0 137 38t74 95l227 -92q-51 -127 -167.5 -199t-270.5 -72q-139 0 -257 67.5t-187.5 186
t-69.5 260.5z" />
    <glyph glyph-name="d" unicode="d" horiz-adv-x="1277" 
d="M70 487q0 103 27.5 190t74.5 149t110 106t135 65t148 21q174 0 301 -121v557h271v-1454h-271v104q-127 -139 -321 -139q-93 0 -178 35.5t-151.5 100.5t-106 165t-39.5 221zM326 494q0 -137 75.5 -218t188.5 -81q111 0 188.5 81.5t77.5 223.5q0 131 -77.5 209.5
t-184.5 78.5q-108 0 -186.5 -79t-81.5 -215z" />
    <glyph glyph-name="e" unicode="e" horiz-adv-x="1132" 
d="M70 496v12q0 132 65 248q69 122 185 192q112 68 236 68h11q156 0 279 -81t178 -220q39 -99 39 -226v-98h-727q30 -74 92 -119t139 -45q75 0 132.5 31.5t82.5 85.5l232 -88q-51 -129 -172 -205t-275 -76h-11q-124 1 -236 69q-116 72 -185 192q-65 116 -65 248v12zM332 586
h473q-4 30 -27.5 68t-48.5 59q-67 55 -162 55q-79 0 -144 -50t-91 -132z" />
    <glyph glyph-name="f" unicode="f" horiz-adv-x="675" 
d="M29 760v223h129v137q0 163 104 265t262 102q48 0 121 -17l-53 -249q-24 6 -45 6q-54 0 -87.5 -35.5t-33.5 -95.5v-113h184v-223h-184q2 -211 2 -760h-268q0 547 -2 760h-129z" />
    <glyph glyph-name="g" unicode="g" horiz-adv-x="1247" 
d="M74 506q0 232 131 371t352 139q181 0 291 -125v92h268v-944q0 -206 -125 -356q-70 -83 -169 -129t-214 -46q-251 0 -395 144q-80 77 -123 201l229 79q20 -59 66 -102q75 -72 195 -72q160 0 225 109q43 67 43 172v84q-111 -123 -287 -123q-215 0 -351 138.5t-136 367.5z
M330 506q0 -118 74.5 -196.5t187.5 -78.5q110 0 181 79t73 204q-3 126 -78 195q-74 71 -176 71q-112 0 -189 -80q-73 -76 -73 -194z" />
    <glyph glyph-name="h" unicode="h" horiz-adv-x="1296" 
d="M145 0v1454h271v-530q99 114 262 114q211 0 350 -127q137 -125 137 -413v-498h-268v483q0 131 -62.5 206t-156.5 75q-97 0 -176 -70t-88 -227v-467h-269z" />
    <glyph glyph-name="i" unicode="i" horiz-adv-x="563" 
d="M115 1317q0 68 50.5 118t119.5 50q66 0 115 -50t49 -118q0 -66 -49 -117t-115 -51q-67 0 -118.5 51t-51.5 117zM143 0v983h267v-983h-267z" />
    <glyph glyph-name="j" unicode="j" horiz-adv-x="600" 
d="M-51 -213q63 0 106 11.5t68 30t38 53.5t17 70.5t4 92.5l-6 940h279l-9 -1012q-3 -179 -102 -319q-103 -146 -395 -146v279zM135 1311q0 72 52 124t124 52t123 -52t51 -124q0 -70 -51.5 -123t-122.5 -53t-123.5 53t-52.5 123z" />
    <glyph glyph-name="k" unicode="k" horiz-adv-x="1056" 
d="M145 0v1454h269v-784l303 313h325l-411 -426l411 -557h-297l-280 385l-51 -53v-332h-269z" />
    <glyph glyph-name="l" unicode="l" horiz-adv-x="684" 
d="M145 276v1178h269l2 -1137q0 -47 20 -60t74 -13l94 -2v-242l-239 2q-108 0 -164 72t-56 202z" />
    <glyph glyph-name="m" unicode="m" horiz-adv-x="1826" 
d="M145 0v985h263v-90q92 109 245 121q115 0 201.5 -54.5t134.5 -152.5q93 203 303 203q185 0 294.5 -129.5t109.5 -327.5v-555h-262l6 571q0 99 -53.5 152t-133.5 53q-89 0 -150 -61t-61 -162v-553h-260l4 573q0 95 -48 151t-122 56q-92 0 -150 -58t-58 -169v-553h-263z
" />
    <glyph glyph-name="n" unicode="n" horiz-adv-x="1277" 
d="M145 0l2 983h256v-115q55 72 130.5 110t158.5 38q194 0 324 -115q131 -113 131 -387v-514h-260v500q0 138 -64 210t-172 72q-99 0 -170 -67t-78 -189l3 -526h-261z" />
    <glyph glyph-name="o" unicode="o" horiz-adv-x="1142" 
d="M70 487v12q0 132 66 249q68 123 186 196q113 70 241 70h10h10q127 0 240 -70q117 -73 185 -196q65 -118 65 -249v-12v-12q0 -131 -65 -245q-68 -120 -184 -189q-112 -66 -240 -66h-11h-11q-125 0 -238 68q-118 71 -188 191q-67 115 -66 242v11zM334 485q0 -108 67.5 -185
t171.5 -77q108 0 172 72.5t64 189.5q0 118 -65.5 196.5t-170.5 78.5q-108 0 -173.5 -78.5t-65.5 -196.5z" />
    <glyph glyph-name="p" unicode="p" horiz-adv-x="1282" 
d="M145 -465v1448h281v-94q126 129 311 129q93 0 178 -35.5t151.5 -100.5t106 -165t39.5 -221v-6q0 -119 -39 -219q-40 -103 -107.5 -169.5t-153.5 -102.5q-80 -34 -166 -34h-9q-184 0 -311 127v-557h-281zM426 467q6 -124 81 -198t181 -74q108 0 186.5 79t81.5 215
q0 137 -75.5 218t-188.5 81q-110 0 -187.5 -78t-78.5 -210v-33z" />
    <glyph glyph-name="q" unicode="q" horiz-adv-x="1280" 
d="M70 453v6v4q3 247 139 399t364 152q166 0 281 -121v92h281v-1444h-281v482q-115 -121 -281 -121q-150 0 -264 71t-175.5 196t-63.5 284zM326 459q1 -142 74 -229t186 -87q107 0 181.5 74.5t86.5 200.5v82q-12 123 -87 198.5t-181 75.5q-112 0 -185.5 -87t-74.5 -228z" />
    <glyph glyph-name="r" unicode="r" horiz-adv-x="784" 
d="M145 983h265v-113q71 115 282 115q39 0 51 -2v-240q-47 13 -84 13q-103 0 -171 -76.5t-76 -196.5v-483h-265z" />
    <glyph glyph-name="s" unicode="s" horiz-adv-x="931" 
d="M59 262l252 41q8 -44 54 -73t112 -29q121 0 121 80q0 49 -82 67q-145 35 -188 49q-106 31 -168 110t-62 185q0 135 106.5 229.5t258.5 94.5q149 0 257.5 -72t137.5 -190l-246 -56q-12 44 -50.5 68.5t-98.5 24.5q-46 0 -76.5 -19t-38.5 -49q-6 -29 12 -52.5t56 -33.5
l200 -53q124 -31 179 -104.5t55 -192.5q0 -141 -107 -226q-106 -86 -266 -86q-157 0 -278 80q-119 79 -140 207z" />
    <glyph glyph-name="t" unicode="t" horiz-adv-x="735" 
d="M29 764v219h168v311h268v-311h190v-219h-188v-447q0 -47 20 -60t74 -13l94 -2v-242l-239 2q-108 0 -163.5 72t-55.5 202v488h-168z" />
    <glyph glyph-name="u" unicode="u" horiz-adv-x="1259" 
d="M135 477v506h262v-489q0 -133 60.5 -208t160.5 -75q105 0 174.5 82.5t69.5 241.5v448h262v-983h-262v113q-94 -138 -276 -138q-212 0 -332 111q-119 110 -119 391z" />
    <glyph glyph-name="v" unicode="v" horiz-adv-x="1105" 
d="M20 983h269l258 -674l270 674h268l-417 -983h-246h-2z" />
    <glyph glyph-name="w" unicode="w" horiz-adv-x="1613" 
d="M25 983h280l176 -594l187 594h280l176 -594l187 594h278l-346 -983h-242h-4l-192 575l-205 -575h-242h-4z" />
    <glyph glyph-name="x" unicode="x" horiz-adv-x="1042" 
d="M25 0l350 492l-350 491h282l215 -305l217 305h283l-350 -491l350 -492h-283l-217 305l-215 -305h-282z" />
    <glyph glyph-name="y" unicode="y" horiz-adv-x="1146" 
d="M14 983h281l289 -655l264 655h278l-579 -1442h-279l189 469z" />
    <glyph glyph-name="z" unicode="z" horiz-adv-x="958" 
d="M76 0v240l479 503h-479v240h807v-240l-467 -503h467v-240h-807z" />
    <glyph glyph-name="braceleft" unicode="{" horiz-adv-x="671" 
d="M102 625v194q19 0 46.5 15.5t57 43t50 75t20.5 102.5v313q0 228 228 258q70 4 106 4v-176q-65 0 -95 -22t-30 -80v-348q0 -81 -34 -153t-95 -124q129 -107 129 -281v-315q0 -75 30.5 -106t94.5 -31v-176q-68 0 -123 8q-101 19 -156 84t-55 172v313q0 60 -20 107
t-49.5 72.5t-57 38t-47.5 12.5z" />
    <glyph glyph-name="bar" unicode="|" horiz-adv-x="512" 
d="M123 -184v1798h266v-1798h-266z" />
    <glyph glyph-name="braceright" unicode="}" horiz-adv-x="630" 
d="M10 0q64 0 94.5 31t30.5 106v309q0 174 129 281q-61 52 -95 124t-34 153v348q0 58 -30 80t-95 22v176q37 0 107 -4q227 -30 227 -258v-313q0 -55 20.5 -102.5t50 -75t57 -43t46.5 -15.5v-194q-20 0 -47.5 -12.5t-57 -38t-49.5 -72.5t-20 -107v-307q0 -107 -55 -172
t-156 -84q-55 -8 -123 -8v176z" />
    <glyph glyph-name="asciitilde" unicode="~" horiz-adv-x="983" 
d="M82 582q0 103 69 170t173 67q89 0 211 -90q86 -63 135 -63q72 0 84 61h147q0 -103 -69 -170.5t-173 -67.5q-85 0 -210 93q-85 61 -136 61q-69 0 -84 -61h-147z" />
    <glyph glyph-name="uni00A0" unicode="&#xa0;" horiz-adv-x="512" 
 />
    <glyph glyph-name="exclamdown" unicode="&#xa1;" horiz-adv-x="610" 
d="M143 -236v549l35 553h252l35 -553v-549h-322zM158 1098q0 61 46 106t109 45q62 0 108 -45t46 -106q0 -63 -46 -108.5t-108 -45.5q-63 0 -109 45.5t-46 108.5z" />
    <glyph glyph-name="cent" unicode="&#xa2;" horiz-adv-x="1136" 
d="M82 725q0 176 106 318t267 188v223h227v-209q132 -23 232 -103.5t141 -197.5l-236 -86q-59 158 -223 158q-118 0 -184 -81t-66 -210t66 -210t184 -81q88 0 135.5 34t75.5 105l237 -94q-42 -108 -139 -178.5t-223 -89.5v-213h-227v227q-160 45 -269 185q-104 137 -104 315
z" />
    <glyph glyph-name="sterling" unicode="&#xa3;" horiz-adv-x="1228" 
d="M4 635v225h123q-14 55 -14 137q0 211 139.5 348.5t351.5 137.5q162 0 287 -94q126 -91 176 -240l-139 -45l-113 -37q-27 70 -85 116t-126 46q-104 0 -165.5 -66.5t-61.5 -177.5q0 -61 20 -125h498v-225h-426q0 -3 4 -19q8 -27 8 -73q0 -86 -34 -161.5t-97 -115.5l377 -2
q178 0 178 162q0 29 -2 39l266 14q2 -10 2 -51q0 -192 -122.5 -310t-321.5 -118h-717v266q82 0 144.5 78.5t62.5 185.5q0 55 -16 105h-197z" />
    <glyph glyph-name="currency" unicode="&#xa4;" horiz-adv-x="1341" 
d="M82 324l133 131q-76 128 -76 272q0 156 84 287l-129 127l172 176l133 -131q122 76 273 76q158 0 291 -86l124 124l173 -172l-130 -129q76 -122 76 -272q0 -156 -84 -287l125 -131l-176 -172l-127 133q-121 -75 -272 -75q-154 0 -285 84l-133 -132zM385 727
q0 -117 85 -202t202 -85q118 0 203.5 85t85.5 202q0 119 -85.5 204t-203.5 85q-119 0 -203 -85t-84 -204z" />
    <glyph glyph-name="yen" unicode="&#xa5;" horiz-adv-x="1388" 
d="M51 1454h320l321 -604l326 604h319l-405 -684h184v-215h-291v-88h291v-215h-291v-252h-266v252h-293v215h293v88h-293v215h189z" />
    <glyph glyph-name="brokenbar" unicode="&#xa6;" horiz-adv-x="512" 
d="M123 -143v698h266v-698h-266zM123 942v678h266v-678h-266z" />
    <glyph glyph-name="section" unicode="&#xa7;" horiz-adv-x="962" 
d="M82 262l252 41q8 -45 54 -74.5t112 -29.5q57 0 89 24t32 66q0 49 -82 67q-47 12 -92 24.5t-70.5 20t-26.5 7.5q-106 31 -167.5 111.5t-61.5 189.5q0 129 92 221q-92 86 -92 223q0 139 105.5 234.5t258.5 95.5q150 0 258.5 -73t137.5 -196l-246 -55q-12 44 -51 69t-99 25
q-56 0 -85 -23t-29 -65q0 -48 67 -69l201 -54q114 -30 169.5 -96.5t61.5 -171.5q2 0 2 -4v-31q0 -129 -86 -215q86 -77 86 -229q0 -141 -105.5 -233.5t-266.5 -92.5q-160 0 -279 82q-118 81 -139 211zM379 715q0 -27 19.5 -49.5t58.5 -28.5q46 -4 55 -4q55 0 89 22t34 60
q0 43 -34 67.5t-95 24.5h-2q-66 0 -95.5 -27t-29.5 -65z" />
    <glyph glyph-name="dieresis" unicode="&#xa8;" horiz-adv-x="884" 
d="M41 1761q0 69 49.5 118.5t120.5 49.5q68 0 118 -49.5t50 -118.5q0 -68 -49.5 -118t-118.5 -50t-119.5 49.5t-50.5 118.5zM506 1761q0 69 49 118.5t121 49.5q68 0 118 -49.5t50 -118.5q0 -68 -49.5 -118t-118.5 -50t-119.5 49.5t-50.5 118.5z" />
    <glyph glyph-name="copyright" unicode="&#xa9;" horiz-adv-x="1685" 
d="M82 735q-3 151 58.5 292.5t164.5 245t245.5 164.5t293.5 58q151 3 292.5 -58t245 -164.5t164.5 -245t58 -292.5q3 -151 -58 -293.5t-164.5 -245.5t-245 -164.5t-292.5 -58.5q-151 -3 -293.5 58.5t-245.5 164.5t-164.5 245.5t-58.5 293.5zM301 735q-3 -144 71.5 -270.5
t201 -200.5t270.5 -71q108 -2 208.5 41.5t174 117t116.5 174.5t41 209q3 144 -69.5 270t-199 200t-271.5 71q-108 2 -209 -41.5t-175 -116.5t-117.5 -174t-41.5 -209zM487 731q0 148 106 254.5t249 106.5q111 0 197 -57.5t118 -153.5l-162 -58q-38 109 -153 109
q-80 0 -126 -57t-46 -144q0 -89 46 -145t126 -56q59 0 91.5 24t53.5 71l164 -66q-35 -86 -119.5 -136t-189.5 -50q-143 0 -249 105.5t-106 252.5z" />
    <glyph glyph-name="guillemotleft" unicode="&#xab;" horiz-adv-x="1290" 
d="M92 492l332 491h283l-332 -491l332 -492h-283zM625 492l331 491h283l-332 -491l332 -492h-283z" />
    <glyph glyph-name="logicalnot" unicode="&#xac;" horiz-adv-x="1155" 
d="M82 483v246h991v-573h-246v327h-745z" />
    <glyph glyph-name="uni00AD" unicode="&#xad;" horiz-adv-x="935" 
d="M82 397v269h772v-269h-772z" />
    <glyph glyph-name="registered" unicode="&#xae;" horiz-adv-x="708" 
d="M41 1171q0 128 92.5 220t222.5 92q128 0 220 -92.5t92 -219.5q0 -130 -92 -222.5t-220 -92.5q-130 0 -222.5 92t-92.5 223zM115 1171q0 -103 68.5 -171t172.5 -68q100 0 170 69.5t70 169.5t-70 170t-170 70q-102 0 -172 -70q-69 -69 -69 -170zM260 1028v285h66h26
q107 6 113 -76v-8v-12q-3 -49 -43 -70l51 -119h-76l-47 107h-24v-107h-66zM326 1196h49q10 1 14 8.5t4 24.5q-3 20 -41 20h-26v-53z" />
    <glyph glyph-name="macron" unicode="&#xaf;" horiz-adv-x="757" 
d="M41 1632v234h676v-234h-676z" />
    <glyph glyph-name="degree" unicode="&#xb0;" horiz-adv-x="581" 
d="M41 1233q0 102 74 176t176 74t176 -74t74 -176t-74 -176t-176 -74t-176 74t-74 176zM201 1233q0 -37 26.5 -63.5t63.5 -26.5q36 0 63 27t27 63q0 35 -27.5 62.5t-62.5 27.5q-36 0 -63 -27t-27 -63z" />
    <glyph glyph-name="plusminus" unicode="&#xb1;" horiz-adv-x="1107" 
d="M123 0v246h862v-246h-862zM123 553v246h309v184h246v-184h307v-246h-307v-186h-246v186h-309z" />
    <glyph glyph-name="uni00B2" unicode="&#xb2;" horiz-adv-x="636" 
d="M41 700q-4 96 23.5 155t101.5 110q131 89 213 153q30 24 41 56q4 28 4 30q0 44 -33 69t-84 19q-71 -12 -71 -88l2 -20h-172q-6 120 75 199t205 79q114 0 182 -75t68 -195q0 -59 -25 -107q-22 -41 -57.5 -72.5t-114.5 -86.5q-18 -11 -44 -31t-33 -25l256 2v-170z" />
    <glyph glyph-name="uni00B3" unicode="&#xb3;" horiz-adv-x="776" 
d="M123 971h168q-6 -50 20.5 -80.5t75.5 -30.5q41 0 68.5 27.5t27.5 70.5q0 57 -32 82q-30 23 -66 23q-37 0 -72 -21l-57 134l8 8l92 98h-206v172h471v-143l-109 -113q55 -25 94 -80q47 -71 47 -160q0 -112 -78 -190t-188 -78q-118 0 -195.5 81.5t-68.5 199.5z" />
    <glyph glyph-name="acute" unicode="&#xb4;" horiz-adv-x="516" 
d="M0 1579l193 381h282l-207 -381h-268z" />
    <glyph glyph-name="mu" unicode="&#xb5;" horiz-adv-x="1425" 
d="M113 -496v1475h266v-444q0 -159 69.5 -241.5t174.5 -82.5t174 82.5t69 241.5v448h269l2 -666q0 -47 20 -60t74 -13l94 -2v-242l-240 2q-135 0 -188 115q-86 -133 -262 -142h-12h-13q-145 9 -231 101v-572h-266z" />
    <glyph glyph-name="paragraph" unicode="&#xb6;" horiz-adv-x="983" 
d="M82 1044q0 149 90 265q92 114 234 149h266v-1454h-266v625q-142 35 -234 149q-90 119 -90 266zM807 0v1454h94v-1454h-94z" />
    <glyph glyph-name="periodcentered" unicode="&#xb7;" horiz-adv-x="636" 
d="M113 535q0 85 60.5 144.5t145.5 59.5t145 -59.5t60 -144.5q0 -82 -61.5 -142.5t-143.5 -60.5q-83 0 -145 59q-61 61 -61 144z" />
    <glyph glyph-name="cedilla" unicode="&#xb8;" horiz-adv-x="1228" 
d="M489 -31l93 131l125 -2v-63l-56 -70h60q64 0 101.5 -45.5t37.5 -109.5q0 -62 -40 -109t-95 -47h-226v123h189q37 0 37 35q0 30 -37 30h-189v127z" />
    <glyph glyph-name="uni00B9" unicode="&#xb9;" horiz-adv-x="567" 
d="M123 1210v172h100q44 0 47 41v31h174v-756h-174v512h-10h-137z" />
    <glyph glyph-name="guillemotright" unicode="&#xbb;" horiz-adv-x="1290" 
d="M51 0l332 492l-332 491h283l332 -491l-332 -492h-283zM584 0l331 492l-331 491h282l332 -491l-332 -492h-282z" />
    <glyph glyph-name="onequarter" unicode="&#xbc;" horiz-adv-x="2011" 
d="M57 1210v172h101q44 0 47 41v31h174v-752h-174v508h-10h-138zM176 0l1108 1454h266l-1108 -1454h-266zM1286 115v176l352 463h174v-465h95v-176h-95v-133h-174v133zM1499 291l139 -2v186z" />
    <glyph glyph-name="onehalf" unicode="&#xbd;" horiz-adv-x="1949" 
d="M57 1210v172h101q44 0 47 41v31h174v-752h-174v508h-10h-138zM176 0l1108 1454h266l-1108 -1454h-266zM1288 -2q-4 96 23.5 154.5t101.5 109.5q86 59 154 111q58 43 59 43q31 24 41 55q4 28 4 31q0 44 -33 69t-84 19q-71 -12 -71 -88l2 -21h-172q-6 120 75 199.5
t205 79.5q108 0 175 -66t73 -176h2q1 -38 -2 -66.5t-15 -55t-23.5 -43.5t-39.5 -41.5t-49.5 -40.5t-66.5 -48q-30 -17 -78 -55l256 2v-170z" />
    <glyph glyph-name="threequarters" unicode="&#xbe;" horiz-adv-x="2205" 
d="M104 971h168q-6 -50 21 -80.5t76 -30.5q41 0 68.5 27.5t27.5 70.5q0 56 -33 82q-30 23 -65 23q-37 0 -72 -21l-57 134l8 8l92 98h-207v172h471v-143l-108 -113q55 -25 94 -80q47 -71 47 -160q0 -112 -78 -190t-188 -78q-118 0 -196 81.5t-69 199.5zM371 0l1108 1454h266
l-1108 -1454h-266zM1481 115v176l352 463h174v-465h94v-176h-94v-133h-174v133zM1694 291l139 -2v186z" />
    <glyph glyph-name="questiondown" unicode="&#xbf;" horiz-adv-x="1318" 
d="M164 264q0 120 43 205t151 170q26 23 62 43q80 57 113.5 92t37.5 78v45h271v-59q0 -98 -59 -177t-175 -167l-45 -37q-127 -106 -127 -193q0 -106 62 -165.5t161 -59.5q87 0 155.5 67.5t68.5 157.5h272q0 -136 -66 -250t-180 -179.5t-250 -65.5q-207 0 -351 144t-144 351z
M539 1124q0 61 46.5 107.5t108.5 46.5q65 0 111.5 -46t46.5 -108q0 -63 -46 -109t-112 -46q-62 0 -108.5 46t-46.5 109z" />
    <glyph glyph-name="Agrave" unicode="&#xc0;" horiz-adv-x="1490" 
d="M20 0l580 1454h291l579 -1454h-321l-129 344h-549l-131 -344h-320zM410 1960h282l193 -381h-269zM561 586h367l-183 483z" />
    <glyph glyph-name="Aacute" unicode="&#xc1;" horiz-adv-x="1490" 
d="M20 0l580 1454h291l579 -1454h-321l-129 344h-549l-131 -344h-320zM561 586h367l-183 483zM618 1579l193 381h283l-207 -381h-269z" />
    <glyph glyph-name="Acircumflex" unicode="&#xc2;" horiz-adv-x="1490" 
d="M20 0l580 1454h291l579 -1454h-321l-129 344h-549l-131 -344h-320zM408 1579l192 381h242h61l193 -381h-228l-116 215l-117 -215h-227zM561 586h367l-183 483z" />
    <glyph glyph-name="Atilde" unicode="&#xc3;" horiz-adv-x="1490" 
d="M20 0l580 1454h291l579 -1454h-321l-129 344h-549l-131 -344h-320zM342 1751q0 112 70 188q72 78 176 78q155 0 243 -149q36 -48 56.5 -65t46.5 -17q51 0 51 61q0 32 -14 60h207q2 -10 2 -43q0 -113 -72 -197q-71 -80 -174 -80q-78 0 -144 41t-110 119q-26 44 -44 58
t-48 14q-23 0 -38 -21.5t-15 -52.5q0 -1 4 -29h-195q-2 8 -2 35zM561 586h367l-183 483z" />
    <glyph glyph-name="Adieresis" unicode="&#xc4;" horiz-adv-x="1490" 
d="M20 0l580 1454h291l579 -1454h-321l-129 344h-549l-131 -344h-320zM350 1761q0 69 49 118.5t121 49.5q68 0 118 -49.5t50 -118.5q0 -68 -49.5 -118t-118.5 -50t-119.5 49.5t-50.5 118.5zM561 586h367l-183 483zM815 1761q0 69 49.5 118.5t120.5 49.5q68 0 118 -49.5
t50 -118.5q0 -68 -49.5 -118t-118.5 -50t-119.5 49.5t-50.5 118.5z" />
    <glyph glyph-name="Aring" unicode="&#xc5;" horiz-adv-x="1490" 
d="M20 0l580 1454h291l579 -1454h-321l-129 344h-549l-131 -344h-320zM469 1827q0 116 84.5 201.5t198.5 85.5q115 0 198.5 -86t83.5 -201q0 -116 -83.5 -200.5t-198.5 -84.5q-117 0 -200 83.5t-83 201.5zM561 586h367l-183 483zM637 1831q0 -51 33 -85t82 -34t81.5 34
t32.5 85q0 48 -32.5 80.5t-81.5 32.5t-82 -32.5t-33 -80.5z" />
    <glyph glyph-name="AE" unicode="&#xc6;" horiz-adv-x="2002" 
d="M41 0l580 1454h290h72h266l652 -2l-3 -266l-649 2v-322l584 -2l-2 -258l-582 2v-340l652 -2l-3 -266l-649 2v-2h-266v344h-491l-132 -344h-319zM582 586h401v602h-172z" />
    <glyph glyph-name="Ccedilla" unicode="&#xc7;" horiz-adv-x="1546" 
d="M82 727q-4 150 55.5 291t159.5 243.5t236 163.5t280 58q283 3 432 -140q147 -141 205 -284l-272 -101q-39 106 -138.5 174t-226.5 68q-187 0 -310.5 -135t-123.5 -338q0 -201 123 -332t311 -131q129 0 235 65t156 169l271 -127q-73 -162 -224.5 -264.5t-345.5 -126.5
l-49 -62h59q64 0 102 -46t38 -110q0 -62 -40 -108.5t-95 -46.5h-226v123h189q37 0 37 34q0 14 -10 22.5t-27 8.5h-189v127l41 58q-134 13 -255.5 78t-209.5 164.5t-139 231.5t-49 273z" />
    <glyph glyph-name="Egrave" unicode="&#xc8;" horiz-adv-x="1200" 
d="M166 0v1454h266h651l-2 -266h-649v-322l584 -2l-2 -258l-582 2v-342l651 -2l-2 -264h-897h-18zM274 1958h283l193 -381h-269z" />
    <glyph glyph-name="Eacute" unicode="&#xc9;" horiz-adv-x="1200" 
d="M166 0v1454h266h651l-2 -266h-649v-322l584 -2l-2 -258l-582 2v-342l651 -2l-2 -264h-897h-18zM483 1577l193 381h282l-206 -381h-269z" />
    <glyph glyph-name="Ecircumflex" unicode="&#xca;" horiz-adv-x="1200" 
d="M166 0v1454h266h651l-2 -266h-649v-322l584 -2l-2 -258l-582 2v-342l651 -2l-2 -264h-897h-18zM272 1577l193 381h242h61l193 -381h-228l-117 215l-116 -215h-228z" />
    <glyph glyph-name="Edieresis" unicode="&#xcb;" horiz-adv-x="1200" 
d="M166 0v1454h266h651l-2 -266h-649v-322l584 -2l-2 -258l-582 2v-342l651 -2l-2 -264h-897h-18zM215 1759q0 69 49.5 118.5t120.5 49.5q68 0 118 -49.5t50 -118.5q0 -68 -49.5 -118t-118.5 -50t-119.5 49.5t-50.5 118.5zM680 1759q0 69 49 118.5t121 49.5q68 0 118 -49.5
t50 -118.5q0 -68 -49.5 -118t-118.5 -50t-119.5 49.5t-50.5 118.5z" />
    <glyph glyph-name="Igrave" unicode="&#xcc;" horiz-adv-x="598" 
d="M-43 1960h283l192 -381h-268zM166 0v1454h266v-1454h-266z" />
    <glyph glyph-name="Iacute" unicode="&#xcd;" horiz-adv-x="598" 
d="M166 0v1454h266v-1454h-266zM166 1579l192 381h283l-207 -381h-268z" />
    <glyph glyph-name="Icircumflex" unicode="&#xce;" horiz-adv-x="598" 
d="M-45 1579l192 381h242h62l192 -381h-227l-117 215l-117 -215h-227zM166 0v1454h266v-1454h-266z" />
    <glyph glyph-name="Idieresis" unicode="&#xcf;" horiz-adv-x="598" 
d="M-102 1761q0 69 49 118.5t121 49.5q68 0 118 -49.5t50 -118.5q0 -68 -49.5 -118t-118.5 -50t-119.5 49.5t-50.5 118.5zM166 0v1454h266v-1454h-266zM362 1761q0 69 49 118.5t121 49.5q68 0 118 -49.5t50 -118.5q0 -68 -49.5 -118t-118.5 -50t-119.5 49.5t-50.5 118.5z
" />
    <glyph glyph-name="Eth" unicode="&#xd0;" horiz-adv-x="1599" 
d="M82 594v268h174v594h268h240q211 3 385 -91t273 -263t96 -375q2 -156 -55 -292.5t-157.5 -232t-241 -149.5t-300.5 -53h-334h-174v594h-174zM524 240h240q215 0 337 130.5t122 356.5q0 222 -123 354q-124 133 -336 133h-240v-352h201v-268h-201v-354z" />
    <glyph glyph-name="Ntilde" unicode="&#xd1;" horiz-adv-x="1540" 
d="M164 0v1454h266l680 -1001v1001h266v-1454h-266l-680 1001v-1001h-266zM371 1751q0 113 69 188q72 78 176 78q156 0 244 -149q36 -48 56.5 -65t46.5 -17q51 0 51 61q0 30 -15 60h207q2 -10 2 -43q0 -114 -71 -197q-71 -80 -174 -80q-78 0 -144 41t-110 119
q-26 44 -44.5 58t-48.5 14q-23 0 -38 -21.5t-15 -52.5q0 -1 4 -29h-194q-2 8 -2 35z" />
    <glyph glyph-name="Ograve" unicode="&#xd2;" horiz-adv-x="1607" 
d="M82 723q-2 156 53.5 298t152 244.5t231 161.5t282.5 56q150 2 285 -57t232.5 -160.5t153.5 -243.5t54 -299q3 -210 -92.5 -383.5t-262.5 -271t-368 -93.5q-146 -3 -280 55t-232 158t-155 240.5t-54 294.5zM381 723q0 -207 117 -335t305 -128q197 0 310.5 123.5
t113.5 339.5t-115.5 345.5t-310.5 129.5q-189 0 -304.5 -131t-115.5 -344zM459 1960h282l193 -381h-268z" />
    <glyph glyph-name="Oacute" unicode="&#xd3;" horiz-adv-x="1607" 
d="M82 723q-2 156 53.5 298t152 244.5t231 161.5t282.5 56q150 2 285 -57t232.5 -160.5t153.5 -243.5t54 -299q3 -210 -92.5 -383.5t-262.5 -271t-368 -93.5q-146 -3 -280 55t-232 158t-155 240.5t-54 294.5zM381 723q0 -207 117 -335t305 -128q197 0 310.5 123.5
t113.5 339.5t-115.5 345.5t-310.5 129.5q-189 0 -304.5 -131t-115.5 -344zM668 1579l192 381h283l-207 -381h-268z" />
    <glyph glyph-name="Ocircumflex" unicode="&#xd4;" horiz-adv-x="1607" 
d="M82 723q-2 156 53.5 298t152 244.5t231 161.5t282.5 56q150 2 285 -57t232.5 -160.5t153.5 -243.5t54 -299q3 -210 -92.5 -383.5t-262.5 -271t-368 -93.5q-146 -3 -280 55t-232 158t-155 240.5t-54 294.5zM381 723q0 -207 117 -335t305 -128q197 0 310.5 123.5
t113.5 339.5t-115.5 345.5t-310.5 129.5q-189 0 -304.5 -131t-115.5 -344zM457 1579l192 381h242h61l193 -381h-227l-117 215l-117 -215h-227z" />
    <glyph glyph-name="Otilde" unicode="&#xd5;" horiz-adv-x="1607" 
d="M82 723q-2 156 53.5 298t152 244.5t231 161.5t282.5 56q150 2 285 -57t232.5 -160.5t153.5 -243.5t54 -299q3 -210 -92.5 -383.5t-262.5 -271t-368 -93.5q-146 -3 -280 55t-232 158t-155 240.5t-54 294.5zM381 723q0 -207 117 -335t305 -128q197 0 310.5 123.5
t113.5 339.5t-115.5 345.5t-310.5 129.5q-189 0 -304.5 -131t-115.5 -344zM391 1751q0 112 70 188q72 78 176 78q156 0 244 -149q36 -49 56 -65.5t46 -16.5q51 0 51 61q0 32 -14 60h207q2 -10 2 -43q0 -113 -72 -197q-71 -80 -174 -80q-78 0 -144 41t-110 119q-26 44 -44 58
t-48 14q-23 0 -38 -21.5t-15 -52.5q0 -1 4 -29h-195q-2 8 -2 35z" />
    <glyph glyph-name="Odieresis" unicode="&#xd6;" horiz-adv-x="1607" 
d="M82 723q-2 156 53.5 298t152 244.5t231 161.5t282.5 56q150 2 285 -57t232.5 -160.5t153.5 -243.5t54 -299q3 -210 -92.5 -383.5t-262.5 -271t-368 -93.5q-146 -3 -280 55t-232 158t-155 240.5t-54 294.5zM381 723q0 -207 117 -335t305 -128q197 0 310.5 123.5
t113.5 339.5t-115.5 345.5t-310.5 129.5q-189 0 -304.5 -131t-115.5 -344zM399 1761q0 69 49.5 118.5t120.5 49.5q68 0 118 -49.5t50 -118.5q0 -68 -49.5 -118t-118.5 -50t-119.5 49.5t-50.5 118.5zM864 1761q0 69 49 118.5t121 49.5q68 0 118 -49.5t50 -118.5
q0 -68 -49.5 -118t-118.5 -50t-119.5 49.5t-50.5 118.5z" />
    <glyph glyph-name="multiply" unicode="&#xd7;" horiz-adv-x="1595" 
d="M82 172l545 557l-545 557l176 172l541 -553l538 553l176 -172l-544 -557l544 -557l-176 -172l-538 553l-541 -553z" />
    <glyph glyph-name="Oslash" unicode="&#xd8;" horiz-adv-x="1607" 
d="M82 723q-2 156 53.5 298t152 244.5t231 161.5t282.5 56q155 0 286 -58l17 25h309l-106 -172q105 -105 162 -248t57 -307q2 -158 -53.5 -300.5t-152 -244.5t-232 -161t-285.5 -56q-141 0 -271 53l-12 -20h-323l108 174q-107 105 -165 248.5t-58 306.5zM381 723
q0 -171 84 -299l471 756q-64 18 -135 18q-189 0 -304.5 -131t-115.5 -344zM684 262q62 -16 119 -16q196 0 310 129.5t114 347.5q0 173 -78 295z" />
    <glyph glyph-name="Ugrave" unicode="&#xd9;" horiz-adv-x="1468" 
d="M152 528v926h268v-926q0 -85 48 -153.5t119 -103.5t146 -35q121 0 218.5 82.5t97.5 209.5v926h268v-926q2 -121 -46.5 -227.5t-129.5 -179.5t-188 -114t-220 -40q-113 -1 -219.5 40t-187 114t-128.5 179.5t-46 227.5zM393 1960h283l192 -381h-268z" />
    <glyph glyph-name="Uacute" unicode="&#xda;" horiz-adv-x="1468" 
d="M152 528v926h268v-926q0 -85 48 -153.5t119 -103.5t146 -35q121 0 218.5 82.5t97.5 209.5v926h268v-926q2 -121 -46.5 -227.5t-129.5 -179.5t-188 -114t-220 -40q-113 -1 -219.5 40t-187 114t-128.5 179.5t-46 227.5zM602 1579l193 381h282l-207 -381h-268z" />
    <glyph glyph-name="Ucircumflex" unicode="&#xdb;" horiz-adv-x="1468" 
d="M152 528v926h268v-926q0 -85 48 -153.5t119 -103.5t146 -35q121 0 218.5 82.5t97.5 209.5v926h268v-926q2 -121 -46.5 -227.5t-129.5 -179.5t-188 -114t-220 -40q-113 -1 -219.5 40t-187 114t-128.5 179.5t-46 227.5zM391 1579l193 381h241h62l192 -381h-227l-117 215
l-117 -215h-227z" />
    <glyph glyph-name="Udieresis" unicode="&#xdc;" horiz-adv-x="1468" 
d="M152 528v926h268v-926q0 -85 48 -153.5t119 -103.5t146 -35q121 0 218.5 82.5t97.5 209.5v926h268v-926q2 -121 -46.5 -227.5t-129.5 -179.5t-188 -114t-220 -40q-113 -1 -219.5 40t-187 114t-128.5 179.5t-46 227.5zM334 1761q0 69 49 118.5t121 49.5q68 0 118 -49.5
t50 -118.5q0 -68 -49.5 -118t-118.5 -50t-119.5 49.5t-50.5 118.5zM799 1761q0 69 49.5 118.5t120.5 49.5q68 0 118 -49.5t50 -118.5q0 -68 -49.5 -118t-118.5 -50t-119.5 49.5t-50.5 118.5z" />
    <glyph glyph-name="Yacute" unicode="&#xdd;" horiz-adv-x="1327" 
d="M20 1454h320l322 -604l325 604h320l-512 -862v-592h-267v592zM530 1579l193 381h283l-207 -381h-269z" />
    <glyph glyph-name="Thorn" unicode="&#xde;" horiz-adv-x="1222" 
d="M82 0v1454h268v-280l285 -3q118 0 215.5 -37.5t160 -100t96.5 -142t34 -166.5t-33.5 -166t-96 -141t-160 -98.5t-216.5 -36.5h-285v-283h-268zM350 539h268q102 0 165 55t63 133t-63 134.5t-165 56.5h-268v-379z" />
    <glyph glyph-name="germandbls" unicode="&#xdf;" 
d="M82 0v1100q-4 98 58.5 190.5t162 147.5t199.5 53q171 0 289 -113t118 -278q0 -150 -100 -264q93 -61 145 -152.5t52 -200.5q0 -97 -32 -184.5t-90.5 -154t-147.5 -105.5t-197 -39h-99v258l99 2q96 2 159.5 63.5t63.5 159.5q0 99 -67.5 159t-174.5 60v216q74 0 115 48.5
t41 118.5q0 75 -46.5 119.5t-115.5 44.5q-70 0 -119 -45.5t-49 -120.5l-2 -1083h-262z" />
    <glyph glyph-name="agrave" unicode="&#xe0;" 
d="M86 293q-1 87 38.5 161t113.5 121q45 28 102.5 37t167.5 11h143q27 0 42 13.5t14 39.5q-21 106 -177 106q-77 0 -133.5 -30t-97.5 -99l-197 111q78 134 190.5 192t260.5 58q176 0 297 -104t121 -279v-643h-262v78q-108 -91 -238 -91q-172 0 -278.5 88.5t-106.5 229.5z
M207 1540h282l193 -381h-268zM326 303q0 -104 163 -104q96 0 154.5 42t65.5 130v55q-41 -2 -199 -2q-89 0 -136.5 -33t-47.5 -88z" />
    <glyph glyph-name="aacute" unicode="&#xe1;" 
d="M86 293q-1 87 38.5 161t113.5 121q45 28 102.5 37t167.5 11h143q27 0 42 13.5t14 39.5q-21 106 -177 106q-77 0 -133.5 -30t-97.5 -99l-197 111q78 134 190.5 192t260.5 58q176 0 297 -104t121 -279v-643h-262v78q-108 -91 -238 -91q-172 0 -278.5 88.5t-106.5 229.5z
M326 303q0 -104 163 -104q96 0 154.5 42t65.5 130v55q-41 -2 -199 -2q-89 0 -136.5 -33t-47.5 -88zM416 1159l192 381h283l-207 -381h-268z" />
    <glyph glyph-name="acircumflex" unicode="&#xe2;" 
d="M86 293q-1 87 38.5 161t113.5 121q45 28 102.5 37t167.5 11h143q27 0 42 13.5t14 39.5q-21 106 -177 106q-77 0 -133.5 -30t-97.5 -99l-197 111q78 134 190.5 192t260.5 58q176 0 297 -104t121 -279v-643h-262v78q-108 -91 -238 -91q-172 0 -278.5 88.5t-106.5 229.5z
M205 1159l192 381h242h61l193 -381h-227l-117 215l-117 -215h-227zM326 303q0 -104 163 -104q96 0 154.5 42t65.5 130v55q-41 -2 -199 -2q-89 0 -136.5 -33t-47.5 -88z" />
    <glyph glyph-name="atilde" unicode="&#xe3;" 
d="M86 293q-1 87 38.5 161t113.5 121q45 28 102.5 37t167.5 11h143q27 0 42 13.5t14 39.5q-21 106 -177 106q-77 0 -133.5 -30t-97.5 -99l-197 111q78 134 190.5 192t260.5 58q176 0 297 -104t121 -279v-643h-262v78q-108 -91 -238 -91q-172 0 -278.5 88.5t-106.5 229.5z
M139 1331q0 113 70 189q71 77 176 77q156 0 244 -149q36 -49 56 -65.5t46 -16.5q51 0 51 61q0 32 -14 60h207q2 -10 2 -43q0 -113 -72 -197q-71 -80 -174 -80q-78 0 -144 41t-110 119q-26 44 -44 58t-48 14q-23 0 -38 -21.5t-15 -52.5q0 -1 4 -29h-195q-2 8 -2 35zM326 303
q0 -104 163 -104q96 0 154.5 42t65.5 130v55q-41 -2 -199 -2q-89 0 -136.5 -33t-47.5 -88z" />
    <glyph glyph-name="adieresis" unicode="&#xe4;" 
d="M86 293q-1 87 38.5 161t113.5 121q45 28 102.5 37t167.5 11h143q27 0 42 13.5t14 39.5q-21 106 -177 106q-77 0 -133.5 -30t-97.5 -99l-197 111q78 134 190.5 192t260.5 58q176 0 297 -104t121 -279v-643h-262v78q-108 -91 -238 -91q-172 0 -278.5 88.5t-106.5 229.5z
M147 1341q0 69 49.5 118.5t120.5 49.5q68 0 118 -49.5t50 -118.5q0 -68 -49.5 -117.5t-118.5 -49.5t-119.5 49t-50.5 118zM326 303q0 -104 163 -104q96 0 154.5 42t65.5 130v55q-41 -2 -199 -2q-89 0 -136.5 -33t-47.5 -88zM612 1341q0 69 49 118.5t121 49.5q68 0 118 -49.5
t50 -118.5q0 -68 -49.5 -117.5t-118.5 -49.5t-119.5 49t-50.5 118z" />
    <glyph glyph-name="aring" unicode="&#xe5;" 
d="M86 293q-1 87 38.5 161t113.5 121q45 28 102.5 37t167.5 11h143q27 0 42 13.5t14 39.5q-21 106 -177 106q-77 0 -133.5 -30t-97.5 -99l-197 111q78 134 190.5 192t260.5 58q176 0 297 -104t121 -279v-643h-262v78q-108 -91 -238 -91q-172 0 -278.5 88.5t-106.5 229.5z
M266 1407q0 116 84.5 201.5t198.5 85.5q115 0 198.5 -86t83.5 -201q0 -116 -83.5 -200.5t-198.5 -84.5q-117 0 -200 83.5t-83 201.5zM326 303q0 -104 163 -104q96 0 154.5 42t65.5 130v55q-41 -2 -199 -2q-89 0 -136.5 -33t-47.5 -88zM434 1411q0 -51 33 -85t82 -34t82 34
t33 85q0 48 -33 80.5t-82 32.5t-82 -32.5t-33 -80.5z" />
    <glyph glyph-name="ae" unicode="&#xe6;" horiz-adv-x="1800" 
d="M82 289q0 80 39 148.5t112 115.5q53 34 128.5 45.5t213.5 13.5h64q66 0 66 45q-6 56 -52.5 89.5t-115.5 33.5q-71 0 -138 -33.5t-104 -93.5l-197 111q148 256 455 256q99 0 187 -37t145 -104q69 66 156.5 101.5t181.5 35.5q155 0 278 -81t178 -220q27 -67 33 -123t6 -180
h-737q23 -91 86.5 -140t155.5 -49q75 0 132.5 32.5t82.5 88.5l231 -88q-51 -129 -171.5 -205t-274.5 -76q-131 0 -250 70v-47h-268v55q-104 -78 -238 -78q-158 0 -271.5 91t-113.5 223zM322 313q0 -57 41.5 -84.5t111.5 -27.5q95 0 159.5 60t70.5 157q-98 -4 -234 -4
q-68 0 -108.5 -27t-40.5 -74zM993 606h467q-17 73 -82 117.5t-153 44.5q-75 0 -138 -44t-94 -118z" />
    <glyph glyph-name="ccedilla" unicode="&#xe7;" horiz-adv-x="1097" 
d="M70 489q-3 139 68.5 262.5t191.5 195.5t254 69q156 0 284 -84q127 -83 174 -223l-235 -86q-59 157 -223 157q-118 0 -184 -81t-66 -210q0 -128 65.5 -206t184.5 -78q84 0 137 38t74 95l227 -92q-44 -114 -145 -184.5t-236 -84.5l-33 -40h60q63 0 101 -45.5t38 -110.5
q0 -62 -40 -109t-95 -47h-226v123h189q37 0 37 35q0 14 -10 22.5t-27 8.5h-189v127l33 45q-175 34 -292 175.5t-117 327.5z" />
    <glyph glyph-name="egrave" unicode="&#xe8;" horiz-adv-x="1132" 
d="M70 496q-3 138 65 259.5t184.5 192.5t247.5 68q156 0 279 -81t178 -220q39 -99 39 -226v-98h-727q30 -74 92 -119t139 -45q75 0 132.5 31.5t82.5 85.5l232 -88q-51 -129 -172 -205t-275 -76q-131 -3 -247.5 68.5t-184.5 193t-65 259.5zM225 1542h283l192 -381h-268z
M332 586h473q-4 30 -27.5 68t-48.5 59q-67 55 -162 55q-79 0 -144 -50t-91 -132z" />
    <glyph glyph-name="eacute" unicode="&#xe9;" horiz-adv-x="1132" 
d="M70 496q-3 138 65 259.5t184.5 192.5t247.5 68q156 0 279 -81t178 -220q39 -99 39 -226v-98h-727q30 -74 92 -119t139 -45q75 0 132.5 31.5t82.5 85.5l232 -88q-51 -129 -172 -205t-275 -76q-131 -3 -247.5 68.5t-184.5 193t-65 259.5zM332 586h473q-4 30 -27.5 68
t-48.5 59q-67 55 -162 55q-79 0 -144 -50t-91 -132zM434 1161l193 381h282l-207 -381h-268z" />
    <glyph glyph-name="ecircumflex" unicode="&#xea;" horiz-adv-x="1132" 
d="M70 496q-3 138 65 259.5t184.5 192.5t247.5 68q156 0 279 -81t178 -220q39 -99 39 -226v-98h-727q30 -74 92 -119t139 -45q75 0 132.5 31.5t82.5 85.5l232 -88q-51 -129 -172 -205t-275 -76q-131 -3 -247.5 68.5t-184.5 193t-65 259.5zM223 1161l193 381h241h62l192 -381
h-227l-117 215l-116 -215h-228zM332 586h473q-4 30 -27.5 68t-48.5 59q-67 55 -162 55q-79 0 -144 -50t-91 -132z" />
    <glyph glyph-name="edieresis" unicode="&#xeb;" horiz-adv-x="1132" 
d="M70 496q-3 138 65 259.5t184.5 192.5t247.5 68q156 0 279 -81t178 -220q39 -99 39 -226v-98h-727q30 -74 92 -119t139 -45q75 0 132.5 31.5t82.5 85.5l232 -88q-51 -129 -172 -205t-275 -76q-131 -3 -247.5 68.5t-184.5 193t-65 259.5zM164 1290q0 70 49 119t121 49
q68 0 118 -49.5t50 -118.5q0 -68 -49.5 -118t-118.5 -50t-119.5 49.5t-50.5 118.5zM332 586h473q-4 30 -27.5 68t-48.5 59q-67 55 -162 55q-79 0 -144 -50t-91 -132zM629 1290q0 70 49.5 119t120.5 49q68 0 118 -49.5t50 -118.5q0 -68 -49.5 -118t-118.5 -50t-119.5 49.5
t-50.5 118.5z" />
    <glyph glyph-name="igrave" unicode="&#xec;" horiz-adv-x="514" 
d="M-49 1569h282l193 -381h-268zM166 0v1001h266v-1001h-266z" />
    <glyph glyph-name="iacute" unicode="&#xed;" horiz-adv-x="512" 
d="M82 0v1001h266v-1001h-266zM96 1167l193 381h282l-206 -381h-269z" />
    <glyph glyph-name="icircumflex" unicode="&#xee;" horiz-adv-x="739" 
d="M23 1161l192 381h242h61l193 -381h-228l-116 215l-117 -215h-227zM238 0v1001h266v-1001h-266z" />
    <glyph glyph-name="idieresis" unicode="&#xef;" horiz-adv-x="739" 
d="M-41 1303q0 69 49 118t121 49q68 0 118 -49t50 -118q0 -68 -49.5 -118t-118.5 -50t-119.5 49.5t-50.5 118.5zM238 0v983h266v-983h-266zM424 1303q0 69 49 118t121 49q68 0 118 -49t50 -118q0 -68 -49.5 -118t-118.5 -50t-119.5 49.5t-50.5 118.5z" />
    <glyph glyph-name="eth" unicode="&#xf0;" horiz-adv-x="1333" 
d="M82 477q-3 240 138.5 410t373.5 198q11 1 36 3t34 2q107 0 213 -41q-56 98 -123 174l-138 -113l-127 147l125 103q-69 60 -145 106l133 179q104 -51 201 -129l139 114l121 -149l-119 -101q146 -165 226.5 -381t80.5 -467l-2 -65q3 -137 -65.5 -265.5t-188.5 -213
t-260 -97.5q-66 -4 -71 -4q-151 -3 -286.5 76t-217.5 217t-78 297zM322 473q0 -5 4 -41q0 -1 4 -29q25 -121 118 -197.5t216 -76.5q134 0 235 84q102 82 111 231q3 181 -93 291.5t-258 110.5q-30 0 -38 -2q-125 -9 -211 -107q-85 -97 -88 -233h2z" />
    <glyph glyph-name="ntilde" unicode="&#xf1;" horiz-adv-x="1277" 
d="M145 0l2 983h256v-115q55 72 130.5 110t158.5 38q194 0 324 -115q131 -113 131 -387v-514h-260v500q0 138 -64 210t-172 72q-99 0 -170 -67t-78 -189l3 -526h-261zM238 1333q0 114 69 189q71 77 176 77q156 0 244 -149q36 -49 56 -65.5t46 -16.5q25 0 38.5 16.5
t13.5 45.5t-15 59h207q2 -10 2 -43q0 -114 -71 -197q-71 -80 -175 -80q-78 0 -144 41t-110 119q-26 44 -44 58t-48 14q-23 0 -38 -21.5t-15 -52.5q0 -1 4 -29h-194q-2 8 -2 35z" />
    <glyph glyph-name="ograve" unicode="&#xf2;" horiz-adv-x="1142" 
d="M70 487q-3 138 65.5 261t186.5 196t251 70q133 3 250 -70t185 -196t65 -261q3 -138 -65 -257.5t-184.5 -188.5t-250.5 -66q-131 -3 -249 68t-187.5 191t-66.5 253zM242 1540h282l193 -381h-268zM334 485q0 -108 67.5 -185t171.5 -77q108 0 172 72.5t64 189.5
q0 118 -65.5 196.5t-170.5 78.5q-108 0 -173.5 -78.5t-65.5 -196.5z" />
    <glyph glyph-name="oacute" unicode="&#xf3;" horiz-adv-x="1142" 
d="M70 487q-3 138 65.5 261t186.5 196t251 70q133 3 250 -70t185 -196t65 -261q3 -138 -65 -257.5t-184.5 -188.5t-250.5 -66q-131 -3 -249 68t-187.5 191t-66.5 253zM334 485q0 -108 67.5 -185t171.5 -77q108 0 172 72.5t64 189.5q0 118 -65.5 196.5t-170.5 78.5
q-108 0 -173.5 -78.5t-65.5 -196.5zM451 1159l192 381h283l-207 -381h-268z" />
    <glyph glyph-name="ocircumflex" unicode="&#xf4;" horiz-adv-x="1142" 
d="M70 487q-3 138 65.5 261t186.5 196t251 70q133 3 250 -70t185 -196t65 -261q3 -138 -65 -257.5t-184.5 -188.5t-250.5 -66q-131 -3 -249 68t-187.5 191t-66.5 253zM240 1159l192 381h242h61l193 -381h-228l-116 215l-117 -215h-227zM334 485q0 -108 67.5 -185t171.5 -77
q108 0 172 72.5t64 189.5q0 118 -65.5 196.5t-170.5 78.5q-108 0 -173.5 -78.5t-65.5 -196.5z" />
    <glyph glyph-name="otilde" unicode="&#xf5;" horiz-adv-x="1142" 
d="M70 487q-3 138 65.5 261t186.5 196t251 70q133 3 250 -70t185 -196t65 -261q3 -138 -65 -257.5t-184.5 -188.5t-250.5 -66q-131 -3 -249 68t-187.5 191t-66.5 253zM174 1331q0 113 70 189q71 77 176 77q156 0 244 -149q36 -49 56 -65.5t46 -16.5q51 0 51 61q0 32 -14 60
h207q2 -10 2 -43q0 -113 -72 -197q-71 -80 -174 -80q-78 0 -144 41t-110 119q-26 44 -44 58t-48 14q-23 0 -38 -21.5t-15 -52.5q0 -1 4 -29h-195q-2 8 -2 35zM334 485q0 -108 67.5 -185t171.5 -77q108 0 172 72.5t64 189.5q0 118 -65.5 196.5t-170.5 78.5
q-108 0 -173.5 -78.5t-65.5 -196.5z" />
    <glyph glyph-name="odieresis" unicode="&#xf6;" horiz-adv-x="1142" 
d="M70 487q-3 138 65.5 261t186.5 196t251 70q133 3 250 -70t185 -196t65 -261q3 -138 -65 -257.5t-184.5 -188.5t-250.5 -66q-131 -3 -249 68t-187.5 191t-66.5 253zM182 1341q0 69 49 118.5t121 49.5q68 0 118 -49.5t50 -118.5q0 -68 -49.5 -117.5t-118.5 -49.5t-119.5 49
t-50.5 118zM334 485q0 -108 67.5 -185t171.5 -77q108 0 172 72.5t64 189.5q0 118 -65.5 196.5t-170.5 78.5q-108 0 -173.5 -78.5t-65.5 -196.5zM647 1341q0 69 49.5 118.5t120.5 49.5q68 0 118 -49.5t50 -118.5q0 -68 -49.5 -117.5t-118.5 -49.5t-119.5 49t-50.5 118z" />
    <glyph glyph-name="divide" unicode="&#xf7;" horiz-adv-x="976" 
d="M102 397v207h772v-207h-772zM334 125q0 63 46 108.5t109 45.5q62 0 108 -45.5t46 -108.5q0 -61 -46 -106.5t-108 -45.5q-63 0 -109 45t-46 107zM334 860q0 63 46 108.5t109 45.5q62 0 108 -45.5t46 -108.5q0 -61 -46 -106t-108 -45q-63 0 -109 45t-46 106z" />
    <glyph glyph-name="oslash" unicode="&#xf8;" horiz-adv-x="1146" 
d="M72 487q-3 138 65.5 261t186.5 196t251 70q103 0 193 -41l6 8h211l-67 -111q74 -74 115.5 -174t41.5 -209q0 -140 -67 -259.5t-182 -189t-251 -69.5q-103 0 -188 39l-8 -12h-219l71 117q-75 72 -117 170.5t-42 203.5zM336 485q0 -80 37 -147l260 416q-27 6 -58 6
q-108 0 -173.5 -78.5t-65.5 -196.5zM520 223q24 -6 55 -6q107 0 171.5 75.5t64.5 192.5q0 90 -37 154z" />
    <glyph glyph-name="ugrave" unicode="&#xf9;" horiz-adv-x="1259" 
d="M135 477v506h262v-489q0 -133 60.5 -208t160.5 -75q105 0 174.5 82.5t69.5 241.5v448h262v-983h-262v113q-94 -138 -276 -138q-212 0 -332 111q-119 110 -119 391zM289 1530h282l193 -381h-268z" />
    <glyph glyph-name="uacute" unicode="&#xfa;" horiz-adv-x="1259" 
d="M135 477v506h262v-489q0 -133 60.5 -208t160.5 -75q105 0 174.5 82.5t69.5 241.5v448h262v-983h-262v113q-94 -138 -276 -138q-212 0 -332 111q-119 110 -119 391zM498 1149l192 381h283l-207 -381h-268z" />
    <glyph glyph-name="ucircumflex" unicode="&#xfb;" horiz-adv-x="1259" 
d="M135 477v506h262v-489q0 -133 60.5 -208t160.5 -75q105 0 174.5 82.5t69.5 241.5v448h262v-983h-262v113q-94 -138 -276 -138q-212 0 -332 111q-119 110 -119 391zM287 1149l192 381h242h61l193 -381h-227l-117 215l-117 -215h-227z" />
    <glyph glyph-name="udieresis" unicode="&#xfc;" horiz-adv-x="1259" 
d="M135 477v506h262v-489q0 -133 60.5 -208t160.5 -75q105 0 174.5 82.5t69.5 241.5v448h262v-983h-262v113q-94 -138 -276 -138q-212 0 -332 111q-119 110 -119 391zM229 1331q0 69 49.5 118.5t120.5 49.5q68 0 118 -49.5t50 -118.5q0 -68 -49.5 -118t-118.5 -50
t-119.5 49.5t-50.5 118.5zM694 1331q0 69 49 118.5t121 49.5q68 0 118 -49.5t50 -118.5q0 -68 -49.5 -118t-118.5 -50t-119.5 49.5t-50.5 118.5z" />
    <glyph glyph-name="yacute" unicode="&#xfd;" horiz-adv-x="1146" 
d="M14 983h281l289 -655l264 655h278l-579 -1442h-279l189 469zM438 1108l193 381h282l-206 -381h-269z" />
    <glyph glyph-name="thorn" unicode="&#xfe;" horiz-adv-x="1277" 
d="M145 -532v1986h281v-532q114 120 281 120q228 0 362.5 -151t140.5 -395v-7v-8q-6 -244 -140.5 -395.5t-362.5 -151.5q-166 0 -281 121v-587h-281zM426 449q12 -123 87.5 -199t180.5 -76q112 0 185.5 87t74.5 226q-1 141 -74.5 227.5t-185.5 86.5q-106 0 -181 -75
t-87 -198v-79z" />
    <glyph glyph-name="ydieresis" unicode="&#xff;" horiz-adv-x="1146" 
d="M14 983h281l289 -655l264 655h278l-579 -1442h-279l189 469zM170 1290q0 70 49 119t121 49q68 0 118 -49.5t50 -118.5q0 -68 -49.5 -118t-118.5 -50t-119.5 49.5t-50.5 118.5zM635 1290q0 70 49.5 119t120.5 49q68 0 118 -49.5t50 -118.5q0 -68 -49.5 -118t-118.5 -50
t-119.5 49.5t-50.5 118.5z" />
    <glyph glyph-name="OE" unicode="&#x152;" horiz-adv-x="2258" 
d="M82 723q-2 156 53.5 298t152 244.5t231 161.5t282.5 56q264 0 459 -162v133h266l651 -2l-2 -266l-649 2v-322l583 -2l-2 -258l-581 2v-340l651 -2l-2 -266l-649 2v-2h-266v121q-200 -160 -457 -160q-145 -3 -279 57.5t-231.5 163.5t-155 245t-55.5 296zM381 723
q0 -208 118 -342.5t304 -134.5q196 0 310 129.5t114 347.5q0 216 -115.5 345.5t-310.5 129.5q-189 0 -304.5 -131t-115.5 -344z" />
    <glyph glyph-name="oe" unicode="&#x153;" horiz-adv-x="1896" 
d="M82 487q-3 138 66 261t187 196t251 70q107 0 202 -45.5t168 -128.5q70 79 164 122.5t199 43.5q156 0 279 -81t178 -220q39 -99 39 -226v-98h-728q30 -76 92.5 -123t139.5 -47q74 0 132 33.5t83 89.5l231 -88q-51 -130 -172 -206.5t-274 -76.5q-105 0 -201 45t-166 125
q-73 -79 -167 -121.5t-199 -42.5q-131 -3 -249.5 70t-188 194t-66.5 254zM346 485q0 -107 66 -188q68 -80 174 -80q107 0 171 75t64 193q0 119 -65.5 197t-169.5 78q-108 0 -174 -78.5t-66 -196.5zM1083 575h473q-3 21 -12 39q-26 66 -86.5 105t-138.5 39
q-79 0 -144.5 -50.5t-91.5 -132.5z" />
    <glyph glyph-name="Ydieresis" unicode="&#x178;" horiz-adv-x="1327" 
d="M20 1454h320l322 -604l325 604h320l-512 -862v-592h-267v592zM262 1761q0 69 49 118.5t121 49.5q68 0 118 -49.5t50 -118.5q0 -68 -49.5 -118t-118.5 -50t-119.5 49.5t-50.5 118.5zM727 1761q0 69 49.5 118.5t120.5 49.5q68 0 118 -49.5t50 -118.5q0 -68 -49.5 -118
t-118.5 -50t-119.5 49.5t-50.5 118.5z" />
    <glyph glyph-name="circumflex" unicode="&#x2c6;" horiz-adv-x="770" 
d="M41 1579l192 381h242h62l192 -381h-227l-117 215l-117 -215h-227z" />
    <glyph glyph-name="tilde" unicode="&#x2dc;" horiz-adv-x="921" 
d="M51 1710q0 112 70 188q72 78 176 78q156 0 244 -149q36 -49 56 -65.5t46 -16.5q51 0 51 61q0 32 -14 60h207q2 -10 2 -43q0 -113 -72 -197q-71 -80 -174 -80q-78 0 -144 41t-110 119q-26 44 -44 58t-48 14q-23 0 -38 -21.5t-15 -52.5q0 -1 4 -29h-195q-2 8 -2 35z" />
    <glyph glyph-name="uni2000" unicode="&#x2000;" horiz-adv-x="1057" 
 />
    <glyph glyph-name="uni2001" unicode="&#x2001;" horiz-adv-x="2114" 
 />
    <glyph glyph-name="uni2002" unicode="&#x2002;" horiz-adv-x="1057" 
 />
    <glyph glyph-name="uni2003" unicode="&#x2003;" horiz-adv-x="2114" 
 />
    <glyph glyph-name="uni2004" unicode="&#x2004;" horiz-adv-x="704" 
 />
    <glyph glyph-name="uni2005" unicode="&#x2005;" horiz-adv-x="528" 
 />
    <glyph glyph-name="uni2006" unicode="&#x2006;" horiz-adv-x="352" 
 />
    <glyph glyph-name="uni2007" unicode="&#x2007;" horiz-adv-x="352" 
 />
    <glyph glyph-name="uni2008" unicode="&#x2008;" horiz-adv-x="264" 
 />
    <glyph glyph-name="uni2009" unicode="&#x2009;" horiz-adv-x="422" 
 />
    <glyph glyph-name="uni200A" unicode="&#x200a;" horiz-adv-x="117" 
 />
    <glyph glyph-name="uni2010" unicode="&#x2010;" horiz-adv-x="935" 
d="M82 397v269h772v-269h-772z" />
    <glyph glyph-name="uni2011" unicode="&#x2011;" horiz-adv-x="935" 
d="M82 397v269h772v-269h-772z" />
    <glyph glyph-name="figuredash" unicode="&#x2012;" horiz-adv-x="935" 
d="M82 397v269h772v-269h-772z" />
    <glyph glyph-name="endash" unicode="&#x2013;" horiz-adv-x="1857" 
d="M133 397v269h1591v-269h-1591z" />
    <glyph glyph-name="emdash" unicode="&#x2014;" horiz-adv-x="2328" 
d="M164 397v269h2001v-269h-2001z" />
    <glyph glyph-name="quoteleft" unicode="&#x2018;" horiz-adv-x="432" 
d="M61 1137q0 35 21 73l121 236h78l-33 -162q54 -10 88.5 -51.5t34.5 -95.5q0 -63 -46.5 -108.5t-109.5 -45.5q-62 0 -108 45.5t-46 108.5z" />
    <glyph glyph-name="quoteright" unicode="&#x2019;" horiz-adv-x="432" 
d="M61 1251q0 63 46.5 108.5t109.5 45.5q62 0 108 -45.5t46 -108.5q0 -35 -21 -73l-121 -236h-77l32 162q-54 10 -88.5 51.5t-34.5 95.5z" />
    <glyph glyph-name="quotesinglbase" unicode="&#x201a;" horiz-adv-x="452" 
d="M125 152q0 63 46.5 108t109.5 45q62 0 107.5 -45t45.5 -108q0 -38 -20 -74l-121 -236h-78l33 162q-54 10 -88.5 52t-34.5 96z" />
    <glyph glyph-name="quotedblleft" unicode="&#x201c;" horiz-adv-x="903" 
d="M123 1137q0 37 20 73l121 236h78l-33 -162q54 -10 88.5 -51.5t34.5 -95.5q0 -63 -46.5 -108.5t-109.5 -45.5q-62 0 -107.5 45.5t-45.5 108.5zM471 1137q0 35 21 73l120 236h78l-33 -162q54 -10 88.5 -51.5t34.5 -95.5q0 -63 -46 -108.5t-109 -45.5q-62 0 -108 45.5
t-46 108.5z" />
    <glyph glyph-name="quotedblright" unicode="&#x201d;" horiz-adv-x="903" 
d="M123 1251q0 63 46.5 108.5t109.5 45.5q62 0 107.5 -45.5t45.5 -108.5q0 -37 -20 -73l-121 -236h-78l33 162q-54 10 -88.5 51.5t-34.5 95.5zM471 1251q0 63 46.5 108.5t109.5 45.5q62 0 107.5 -45.5t45.5 -108.5q0 -37 -20 -73l-121 -236h-78l33 162q-54 10 -88.5 51.5
t-34.5 95.5z" />
    <glyph glyph-name="quotedblbase" unicode="&#x201e;" horiz-adv-x="731" 
d="M20 152q0 63 46.5 108t109.5 45q62 0 108 -45t46 -108q0 -36 -21 -74l-121 -236h-77l32 162q-54 10 -88.5 52t-34.5 96zM369 152q0 63 46 108t109 45q62 0 108 -45t46 -108q0 -36 -21 -74l-120 -236h-78l33 162q-54 10 -88.5 52t-34.5 96z" />
    <glyph glyph-name="bullet" unicode="&#x2022;" horiz-adv-x="831" 
d="M113 518q0 124 90.5 213.5t214.5 89.5q121 0 211 -91t90 -212q0 -120 -90 -209.5t-211 -89.5q-123 0 -214 89.5t-91 209.5z" />
    <glyph glyph-name="ellipsis" unicode="&#x2026;" horiz-adv-x="1660" 
d="M184 121q0 63 46.5 108t109.5 45q62 0 108 -45t46 -108q0 -61 -46 -106.5t-108 -45.5q-63 0 -109.5 45.5t-46.5 106.5zM676 121q0 63 46 108t109 45q62 0 108 -45t46 -108q0 -61 -46 -106.5t-108 -45.5q-63 0 -109 45t-46 107zM1167 121q0 63 46.5 108t109.5 45
q62 0 108 -45t46 -108q0 -61 -46 -106.5t-108 -45.5q-63 0 -109.5 45.5t-46.5 106.5z" />
    <glyph glyph-name="uni202F" unicode="&#x202f;" horiz-adv-x="422" 
 />
    <glyph glyph-name="guilsinglleft" unicode="&#x2039;" horiz-adv-x="757" 
d="M92 492l332 491h283l-332 -491l332 -492h-283z" />
    <glyph glyph-name="guilsinglright" unicode="&#x203a;" horiz-adv-x="757" 
d="M51 0l332 492l-332 491h283l332 -491l-332 -492h-283z" />
    <glyph glyph-name="uni205F" unicode="&#x205f;" horiz-adv-x="528" 
 />
    <glyph glyph-name="Euro" unicode="&#x20ac;" horiz-adv-x="1509" 
d="M133 412v250h148q-2 12 -2 53l2 71h-148v250h211q91 204 266 322q181 123 400 123q196 0 387 -105l-121 -221q-142 74 -266 74q-112 0 -210.5 -51t-166.5 -142h428l-68 -250h-458q-1 -10 -3 -35.5t-2 -35.5q0 -41 2 -53h429l-62 -250h-274q69 -95 169.5 -149t215.5 -54
q166 0 290 98l158 -196q-91 -72 -209 -113t-239 -41q-224 0 -404 125q-181 126 -266 330h-207z" />
    <glyph glyph-name="trademark" unicode="&#x2122;" horiz-adv-x="1230" 
d="M61 1335v119h416v-119h-149v-413h-113v413h-154zM537 922v532h112l172 -397l176 397h111v-532h-111v266l-116 -266h-119l-113 266v-266h-112z" />
    <glyph glyph-name="uni25FC" unicode="&#x25fc;" horiz-adv-x="983" 
d="M0 0v983h983v-983h-983z" />
    <glyph glyph-name="uniFB03" unicode="&#xfb03;" horiz-adv-x="1746" 
d="M29 764v219h108v137q0 163 104.5 265t262.5 102q48 0 121 -17l-54 -249q-24 6 -45 6q-54 0 -87 -35.5t-33 -95.5v-113h325v137q0 163 104.5 265t262.5 102q48 0 121 -17l-54 -249q-24 6 -45 6q-54 0 -87.5 -35.5t-33.5 -95.5v-113h596v-219v-764h-266v764h-330
q2 -211 2 -764h-268q0 549 -2 764h-325q2 -211 2 -764h-269q0 549 -2 764h-108zM1300 1317q0 68 50.5 118t119.5 50q66 0 115 -50t49 -118q0 -66 -49 -117t-115 -51q-67 0 -118.5 51t-51.5 117z" />
    <glyph glyph-name="uniFB04" unicode="&#xfb04;" horiz-adv-x="1906" 
d="M29 764v219h108v137q0 163 104.5 265t262.5 102q48 0 121 -17l-54 -249q-24 6 -45 6q-54 0 -87 -35.5t-33 -95.5v-113h325v137q0 163 104.5 265t262.5 102q48 0 121 -17l-54 -249q-24 6 -45 6q-54 0 -87.5 -35.5t-33.5 -95.5v-113h369v471h268l2 -1137q0 -47 20 -60
t75 -13l94 -2v-242l-240 2q-108 0 -163.5 72t-55.5 202v488h-369q2 -211 2 -764h-268q0 549 -2 764h-325q2 -211 2 -764h-269q0 549 -2 764h-108z" />
    </font>
</defs>
</svg>
